<svg width="102" height="100" viewBox="0 0 102 100" fill="none" xmlns="http://www.w3.org/2000/svg">
<path d="M101.487 86.2942C49.6457 110.263 14.6986 96.1618 0.170898 87.3485C0.637718 85.5215 1.12865 83.7025 1.64376 81.8916C3.92956 73.7464 6.60975 65.7219 9.89359 57.8504C11.4309 54.1641 12.1633 49.6488 11.6804 45.705C10.2075 33.608 8.45288 21.535 6.56951 9.48628C6.82706 9.0436 7.00412 8.7458 7.26167 8.30313C21.6365 2.99105 58.0002 -7.12605 95.4262 8.96312C95.3055 9.63116 95.2008 10.2912 95.0962 10.9592C93.5347 20.5451 92.094 30.1471 90.5568 39.733C89.3092 47.4918 90.6051 54.6712 93.5991 62.0276C96.223 68.4826 98.3881 75.1468 100.288 81.8916C100.698 83.3564 101.1 84.8293 101.487 86.2942Z" fill="black"/>
</svg>
