<svg width="105" height="92" viewBox="0 0 105 92" fill="none" xmlns="http://www.w3.org/2000/svg">
<path d="M104.055 73.3877C103.564 72.5104 103.017 71.6251 102.414 70.7236C102.164 71.3353 101.89 71.947 101.609 72.5507C100.305 75.3677 98.8158 78.1525 98.2765 81.1063C97.6327 84.7202 97.0129 88.342 96.4253 91.9639C58.2669 75.5528 21.203 86.3943 7.43992 91.6098C6.83627 87.8189 6.23261 84.028 5.61286 80.2451C5.15409 77.4281 3.62482 74.7882 2.35314 72.116C2.19216 71.7941 2.03928 71.4641 1.89441 71.1341C1.77368 70.8524 1.50809 70.6592 1.20224 70.619C1.19419 70.619 1.19418 70.619 1.18613 70.619C0.743454 70.5707 0.405353 70.1924 0.42145 69.7417C0.984853 49.7329 8.25274 20.3393 12.2851 5.44136C12.6473 5.44136 13.0096 5.43331 13.3798 5.41721C18.7643 5.25624 24.1005 4.71699 29.2033 2.37484C29.9116 2.0529 30.5474 1.68265 31.1028 1.27217C40.5438 4.5882 55.6833 7.44546 72.2956 0.982422C72.2956 0.982422 72.2956 0.982422 72.3037 0.982422C73.028 1.56192 73.8731 2.06094 74.8229 2.49556C80.1189 4.95039 85.6643 5.45745 91.2661 5.58623C91.5478 6.61645 91.8698 7.77546 92.2079 9.03909C96.2322 23.9532 103.508 53.3789 104.055 73.3877Z" fill="black"/>
</svg>
