<svg width="114" height="55" viewBox="0 0 114 55" fill="none" xmlns="http://www.w3.org/2000/svg">
<path d="M113.055 23.1027C94.9459 44.0372 77.6093 52.7619 62.0352 54.4762C61.2626 52.8826 59.862 52.3111 57.2462 52.3192C53.9866 52.3272 52.6183 52.8102 51.9261 54.6372C28.4081 52.8263 9.96067 36.1093 0.632324 25.6944C1.20378 22.9981 1.79134 20.3099 2.3628 17.6136C2.39499 17.4526 2.43524 17.2836 2.46743 17.1226C3.59424 11.8347 4.80956 6.57088 6.16977 1.34733C20.6975 10.1606 55.6446 24.2617 107.486 0.292969C107.808 1.50831 108.121 2.72365 108.427 3.93899C109.264 7.23892 110.102 10.5469 110.914 13.8629C111.663 16.9375 112.387 20.0121 113.055 23.1027Z" fill="black"/>
</svg>
