<svg width="60" height="74" viewBox="0 0 60 74" fill="none" xmlns="http://www.w3.org/2000/svg">
<path d="M55.7038 53.2609C52.0416 56.2147 50.5366 60.0459 49.4903 63.869C49.2327 64.8268 48.9993 65.7765 48.7659 66.7182C48.5164 67.7323 48.3232 68.7545 48.1622 69.7928C35.6547 75.1048 21.9077 72.98 12.0562 69.9859C11.7423 68.0864 11.3157 66.2031 10.7603 64.3358C10.0038 61.7361 9.00574 59.1686 7.73406 56.6494C7.44431 56.0779 7.14652 55.3214 6.63946 55.0638C0.498368 51.9087 0.884678 45.9447 0.377616 40.4234C0.232741 38.7976 1.19052 37.9766 1.48027 37.6627C2.26099 36.7773 4.07195 38.0571 4.62731 37.9203C4.78828 36.7452 4.22488 33.3728 4.53073 31.2399C6.85678 14.9576 7.8065 12.2613 9.35184 9.99963C15.8471 0.502268 25.3363 -1.12355 35.6627 0.606902C45.0152 2.17638 51.5266 7.60114 53.7158 17.1307C54.6897 21.4126 54.9713 25.8554 55.3899 30.2419C55.575 32.1655 54.7219 36.3347 55.4463 37.6547C55.7843 38.2583 55.5589 37.7673 55.5589 37.7673C56.0982 38.1376 57.2974 36.5681 57.6596 36.7371C58.5611 37.1556 59.1647 38.1698 59.1486 38.9102C59.0601 43.9809 59.8649 49.8885 55.7038 53.2609Z" fill="black"/>
</svg>
