<svg width="59" height="340" viewBox="0 0 59 340" fill="none" xmlns="http://www.w3.org/2000/svg">
<path d="M58.9264 29.642C58.6045 30.5113 58.4274 31.6864 58.2906 33.2559C57.5903 40.9745 57.2121 48.8541 55.2965 56.3071C51.6827 70.3117 50.2822 84.445 49.7993 98.8279C49.5659 105.862 48.262 112.905 46.9179 119.835C45.2196 128.543 43.6502 137.163 44.8655 146.113C45.3163 149.389 45.4209 152.915 44.6965 156.102C42.7005 164.915 42.8936 173.704 44.3665 182.453C46.5155 195.226 43.3443 207.436 41.3241 219.855C38.9176 234.64 37.2756 249.546 35.3601 264.412C35.1428 266.126 34.9658 267.969 35.336 269.619C37.5252 279.503 35.344 289.234 34.5231 299.005C34.4024 300.454 33.8872 301.862 33.5652 303.295C32.5189 307.963 31.5209 312.631 30.4182 317.283C28.9453 323.489 27.5851 329.742 25.7098 335.827C25.243 337.348 23.1262 339.071 21.5084 339.393C15.5927 340.568 3.77738 334.676 1.33061 329.372C0.654523 327.915 0.903955 325.597 1.55589 324.028C3.86584 318.466 5.85386 312.591 9.21013 307.697C16.1802 297.516 18.0073 286.224 17.4037 274.489C16.8242 263.148 15.319 251.84 13.9508 240.548C10.9647 216.024 9.39527 191.475 12.2525 166.823C12.3411 166.026 12.494 165.221 12.4376 164.424C10.5543 136.914 8.74333 109.388 6.71508 81.8856C5.74925 68.7985 4.30857 55.7437 3.21395 42.6566C2.00666 28.3542 4.67879 14.5026 7.63263 0.699219C16.961 11.1141 35.4084 27.8311 58.9264 29.642Z" fill="black"/>
</svg>
