<svg width="111" height="237" viewBox="0 0 111 237" fill="none" xmlns="http://www.w3.org/2000/svg">
<path d="M110.06 0.449219C110.173 0.449219 110.262 0.545798 110.229 0.658478C106.141 15.8301 98.7923 45.61 98.406 65.5303H97.5931C96.0719 69.1763 94.4703 72.7901 93.0456 76.4683C90.1642 83.9133 87.2667 91.3422 84.5946 98.8515C82.1237 105.806 80.6347 112.832 78.7191 120.011C74.3487 136.334 64.5375 150.636 55.5069 164.737C51.9816 170.251 49.1727 176.03 46.8788 182.002C44.3274 188.642 43.2247 195.515 41.6793 202.518C40.0374 209.914 37.14 217.045 33.2686 223.653C32.351 225.215 30.7735 224.804 29.4455 226.253C28.4555 227.331 27.5943 230.157 27.2482 231.758C27.1275 232.314 25.719 233.07 25.1073 232.917C24.4312 232.748 23.5459 231.662 23.5298 230.953C23.4895 229.392 23.9 227.822 24.1978 226.269C24.6163 224.072 25.0831 221.883 25.1636 219.581C25.1716 219.396 25.8719 213.496 26.1777 210.92C26.218 210.59 25.7753 210.437 25.6063 210.719C22.1695 216.393 21.3245 231.742 15.8031 235.984C15.4007 236.298 14.7971 236.056 14.6924 235.557C12.9539 227.468 18.4833 212.916 20.4713 206.276C19.4491 205.946 20.7128 206.896 19.6906 206.566C19.0065 208.441 15.9158 217.552 15.2397 219.436C14.6602 221.07 14.3704 222.873 13.5012 224.321C13.1229 224.949 12.3422 226.269 11.5293 226.752C10.8693 227.146 10.1851 226.873 9.67806 227.146C9.58148 227.195 9.46886 227.138 9.43666 227.034C8.99399 225.69 8.72841 224.257 8.96182 223.05C10.0645 217.295 11.4327 211.572 12.9297 205.898C14.3543 200.514 16.0526 195.209 17.9923 188.658C18.0326 188.513 17.8957 188.384 17.7508 188.425C14.8533 189.326 12.6239 189.02 10.5151 189.865C8.30178 190.759 6.31376 193.077 4.06015 193.761C3.00578 194.083 1.61338 194.115 0.349748 193.72C0.059998 193.632 -0.0768323 193.31 0.0438969 193.036C0.623397 191.789 0.752155 189.761 1.73409 189.181C8.14883 185.374 14.3623 180.641 21.3405 178.509C30.7815 175.627 36.1097 169.897 38.8623 161.019C41.8242 151.433 44.2227 141.654 47.6192 132.229C51.8689 120.414 57.342 109.033 61.4468 97.1694C67.2659 80.38 72.6746 63.4215 77.5601 46.3424C80.2725 36.8531 81.1981 26.8728 83.5966 17.2789C86.6953 4.88401 92.8122 0.642388 105.529 0.489464C107.042 0.489464 108.547 0.481413 110.06 0.449219Z" fill="black"/>
</svg>
