<svg width="59" height="342" viewBox="0 0 59 342" fill="none" xmlns="http://www.w3.org/2000/svg">
<path d="M56.3286 333.431C51.757 338.187 46.3644 340.715 39.8933 341.318C36.867 341.6 34.4605 340.868 33.6235 337.712C31.9091 331.298 30.3879 324.835 28.7701 318.396C27.7319 314.267 26.6372 310.146 25.6392 306.009C25.0517 303.554 24.5204 301.083 24.1019 298.596C23.4982 295.063 23.0073 291.505 22.5083 287.956C22.3393 286.773 21.9852 285.501 22.2347 284.39C25.5748 269.605 22.9107 255.069 20.4961 240.525C18.5806 229.032 16.7294 217.539 14.7173 206.061C12.9305 195.864 14.4194 185.795 15.3853 175.654C15.8119 171.227 15.0312 166.663 14.7092 162.172C14.4517 158.446 13.6468 154.703 13.8078 151.001C14.1941 142.292 12.5039 133.97 10.1779 125.672C9.38909 122.879 9.11538 119.885 9.01075 116.963C8.80953 111.209 8.68887 105.438 8.88204 99.6829C9.35691 85.2034 6.62835 71.1989 3.4733 57.1701C1.87162 50.0391 1.5336 42.6102 0.87361 35.294C0.720686 33.636 0.479295 32.3885 0.0366211 31.479C15.6107 29.7646 32.9473 21.0399 51.0567 0.105469C52.3203 5.86023 53.3989 11.6391 54.1474 17.4583C55.564 28.5251 55.8698 39.9139 55.081 51.0451C53.101 78.9658 50.0829 106.814 47.7809 134.71C46.8795 145.624 46.3805 156.611 46.4208 167.557C46.461 179.05 48.3041 190.592 47.7005 202.021C46.6622 221.523 44.0866 240.944 42.6298 260.43C41.833 271.07 41.3903 281.815 42.0262 292.431C42.2918 296.89 45.6722 301.204 47.7809 305.502C51.0809 312.239 54.4855 318.919 57.8901 325.591C59.4595 328.666 58.7432 330.911 56.3286 333.431Z" fill="black"/>
</svg>
