<svg width="111" height="235" viewBox="0 0 111 235" fill="none" xmlns="http://www.w3.org/2000/svg">
<path d="M110.983 192.547C111.055 192.837 110.894 193.134 110.604 193.223C109.51 193.545 108.351 194.06 107.441 193.778C105.18 193.086 103.135 191.718 100.914 190.833C98.9179 190.028 96.8333 189.416 94.1692 188.547C93.7668 188.418 93.3723 188.756 93.4367 189.175C93.7023 190.816 93.7909 191.686 94.0243 192.515C96.7608 202.109 99.6744 211.662 102.169 221.329C102.524 222.705 102.628 224.331 102.218 225.916C101.912 227.083 100.415 227.454 99.5778 226.593C98.2901 225.265 97.775 224.017 97.0989 222.456C95.4811 218.713 94.3382 214.777 93.0262 210.906C92.9136 210.576 92.5514 210.391 92.2133 210.495C92.2053 210.495 92.2054 210.495 92.1973 210.495C91.8673 210.6 91.6741 210.954 91.7788 211.292C92.7366 214.56 93.7668 217.795 94.6038 221.087C95.4489 224.452 96.2458 227.848 96.7126 231.285C96.8494 232.299 96.2377 233.418 95.795 234.52C95.6662 234.842 95.2799 234.971 94.9902 234.786C93.8473 234.078 92.479 233.466 92.0524 232.444C90.5393 228.886 89.501 225.12 88.3501 221.417C87.5452 218.834 86.1608 207.968 83.1586 212.636C81.7501 214.825 82.4343 217.868 84.5028 219.453C86.2332 220.773 85.3801 222.246 86.1447 223.663C86.8289 224.926 88.0844 230.126 88.2132 231.422C88.3098 232.396 87.6338 233.997 86.9657 234.11C86.5874 234.174 86.2011 233.86 85.9677 233.973C85.7182 234.094 85.4043 233.957 85.2433 233.732C84.4223 232.573 83.9796 230.247 82.9735 229.273C82.3216 228.637 82.1929 226.432 81.3075 225.804C80.4946 225.224 78.9251 226.23 78.4663 225.546C76.43 222.456 76.2127 219.22 74.4501 215.968C70.6431 208.958 67.9388 201.312 66.7073 193.521C64.7274 180.997 58.5219 170.365 51.8254 160.014C42.2396 145.197 34.7141 129.526 29.571 112.576C27.3335 105.195 25.4743 97.9355 22.7539 90.7078C20.9107 85.8062 18.2225 80.9127 16.4277 75.995C15.5182 73.508 14.5363 71.0531 13.1116 68.4937C13.0714 68.4212 13.0472 68.3327 13.0472 68.2522C12.4757 48.2434 5.21591 18.9142 1.19161 4.03235C0.93405 3.05847 0.676557 2.14899 0.451196 1.31193C0.354613 0.949744 0.628211 0.595602 0.998447 0.60365C2.61622 0.627796 4.24207 0.643887 5.85984 0.659984C16.7979 0.804859 22.3756 4.51527 26.408 14.6726C27.1001 16.4031 27.7037 18.206 28.0498 20.033C29.732 28.8382 30.8991 37.7641 33.0481 46.4566C35.4788 56.3 38.2877 66.1113 41.7566 75.6408C47.9863 92.72 55.1013 109.461 61.3148 126.548C65.4679 137.977 68.6953 149.752 72.3414 161.367C72.4621 161.753 72.6392 162.115 72.768 162.493C75.4159 170.188 79.408 176.023 88.3017 177.995C94.0404 179.267 99.3766 182.567 104.745 185.263C106.717 186.245 108.407 187.951 109.912 189.609C110.572 190.325 110.717 191.493 110.983 192.547Z" fill="black"/>
</svg>
