<svg width="512" height="512" viewBox="0 0 512 512" fill="none" xmlns="http://www.w3.org/2000/svg">
<g clip-path="url(#clip0_934_4405)">
<path d="M349.225 463.809C347.236 463.809 345.328 463.019 343.922 461.612C342.515 460.206 341.725 458.298 341.725 456.309V416.967C341.725 414.978 342.515 413.07 343.922 411.664C345.328 410.257 347.236 409.467 349.225 409.467C351.214 409.467 353.122 410.257 354.528 411.664C355.935 413.07 356.725 414.978 356.725 416.967V456.309C356.725 458.298 355.935 460.206 354.528 461.612C353.122 463.019 351.214 463.809 349.225 463.809Z" fill="#3B5A9A"/>
<path d="M349.225 512.001C364.604 512.001 377.071 499.534 377.071 484.155C377.071 468.776 364.604 456.309 349.225 456.309C333.846 456.309 321.379 468.776 321.379 484.155C321.379 499.534 333.846 512.001 349.225 512.001Z" fill="#5972A4"/>
<path d="M359.527 416.967H239.46V357.298H383.451V393.043C383.451 406.256 372.74 416.967 359.527 416.967Z" fill="#B998DA"/>
<path d="M109.567 226.03C107.578 226.03 105.67 225.24 104.264 223.833C102.857 222.427 102.067 220.519 102.067 218.53V182.583C102.067 169.274 91.24 158.447 77.931 158.447H39.04C37.0509 158.447 35.1433 157.657 33.7367 156.25C32.3302 154.844 31.54 152.936 31.54 150.947C31.54 148.958 32.3302 147.05 33.7367 145.643C35.1433 144.237 37.0509 143.447 39.04 143.447H77.931C99.51 143.447 117.067 161.003 117.067 182.583V218.53C117.067 220.519 116.277 222.427 114.87 223.833C113.464 225.24 111.556 226.03 109.567 226.03Z" fill="#5972A4"/>
<path d="M423.305 423.999L367.456 368.15C365.138 365.819 362.38 363.971 359.343 362.713C356.306 361.455 353.049 360.812 349.762 360.821H221.957C203.466 360.821 188.476 345.831 188.476 327.34C188.476 308.849 203.466 293.859 221.957 293.859H349.762C374.332 293.859 397.432 303.427 414.805 320.801L470.653 376.649C483.728 389.724 483.728 410.923 470.653 423.998C457.579 437.074 436.38 437.075 423.305 423.999Z" fill="#827CD1"/>
<path d="M292.08 355.098L132.749 341.158L142.488 229.84C146.337 185.842 185.125 153.295 229.123 157.144C273.121 160.993 305.668 199.781 301.819 243.779L292.08 355.098Z" fill="#79CA5C"/>
<path d="M144.355 250.672V225.452C144.355 211.106 132.725 199.477 118.379 199.477H100.755C86.4088 199.477 74.7788 211.107 74.7788 225.452V281.096C95.8748 289.564 128.704 277.025 144.355 250.672Z" fill="#B998DA"/>
<path d="M74.7798 281.096V347.863H144.355V250.671C118.358 254.707 94.5558 265.461 74.7798 281.096Z" fill="#827CD1"/>
<path d="M247.6 478.726C291.934 434.393 291.934 362.514 247.6 318.18C203.267 273.847 131.388 273.847 87.0546 318.18C42.7211 362.514 42.7211 434.393 87.0546 478.726C131.388 523.059 203.267 523.059 247.6 478.726Z" fill="#5972A4"/>
<path d="M152.418 362.798C124.991 396.554 166.826 439.644 203.068 413.448C205.058 408.708 206.08 403.618 206.074 398.477C206.074 377.112 188.754 359.792 167.389 359.792C162.248 359.786 157.158 360.808 152.418 362.798Z" fill="#A3E6FF"/>
<path d="M160.731 405.135C149.284 393.688 146.519 376.856 152.418 362.798C138.488 368.65 128.704 382.42 128.704 398.477C128.704 419.842 146.024 437.162 167.389 437.162C183.446 437.162 197.216 427.378 203.068 413.448C189.009 419.347 172.177 416.581 160.731 405.135Z" fill="#59D5FF"/>
<path d="M240.978 331.486C266.899 329.474 286.105 307.175 291.56 287.622C272.734 267.601 260.652 249.545 254.937 216.881C251.75 198.667 234.403 186.479 216.187 189.671C197.973 192.858 185.791 210.207 188.977 228.421C197.431 276.739 217.065 305.587 240.978 331.486Z" fill="#00C356"/>
<path d="M310.686 354.116C323.704 340.984 323.611 319.785 310.479 306.767C303.546 299.9 297.248 293.672 291.559 287.622C271.659 290.055 246.987 314.934 240.977 331.486C248.112 339.213 255.623 346.681 263.337 354.322C276.481 367.351 297.679 367.237 310.686 354.116ZM376.488 75.9929C358.576 53.7379 314.197 14.7139 259.565 14.7139C204.933 14.7139 160.554 53.7369 142.642 75.9919C138.684 86.8738 136.659 98.3643 136.66 109.944C136.66 170.665 191.687 208.826 259.565 208.826C327.444 208.826 382.47 170.664 382.47 109.944C382.471 98.3646 380.446 86.8745 376.488 75.9929Z" fill="#FFD3BC"/>
<path d="M195.232 124.275C193.243 124.275 191.335 123.485 189.929 122.078C188.522 120.672 187.732 118.764 187.732 116.775V104.413C187.732 102.424 188.522 100.516 189.929 99.1098C191.335 97.7033 193.243 96.9131 195.232 96.9131C197.221 96.9131 199.129 97.7033 200.535 99.1098C201.942 100.516 202.732 102.424 202.732 104.413V116.775C202.732 118.764 201.942 120.672 200.535 122.078C199.129 123.485 197.221 124.275 195.232 124.275ZM323.899 124.275C321.91 124.275 320.002 123.485 318.596 122.078C317.189 120.672 316.399 118.764 316.399 116.775V104.413C316.399 102.424 317.189 100.516 318.596 99.1098C320.002 97.7033 321.91 96.9131 323.899 96.9131C325.888 96.9131 327.796 97.7033 329.202 99.1098C330.609 100.516 331.399 102.424 331.399 104.413V116.775C331.399 118.764 330.609 120.672 329.202 122.078C327.796 123.485 325.888 124.275 323.899 124.275ZM259.565 131.634C255.278 131.633 251.041 130.713 247.14 128.936C243.239 127.16 239.764 124.567 236.949 121.334C235.656 119.833 235.01 117.881 235.152 115.904C235.293 113.928 236.211 112.088 237.705 110.786C239.199 109.485 241.147 108.827 243.124 108.957C245.101 109.086 246.946 109.993 248.257 111.479C251.112 114.754 255.233 116.633 259.564 116.633C263.895 116.633 268.016 114.754 270.871 111.479C271.516 110.73 272.303 110.116 273.186 109.672C274.07 109.227 275.032 108.963 276.018 108.892C277.005 108.821 277.995 108.946 278.933 109.26C279.87 109.573 280.737 110.069 281.482 110.719C282.227 111.368 282.837 112.159 283.276 113.045C283.714 113.931 283.974 114.895 284.038 115.881C284.103 116.868 283.972 117.858 283.653 118.793C283.334 119.729 282.833 120.593 282.179 121.334C279.365 124.567 275.89 127.16 271.989 128.936C268.088 130.713 263.851 131.633 259.565 131.634Z" fill="#495560"/>
<path d="M142.642 75.993C180.488 72.271 223.533 61.807 251.916 46.871C254.274 45.6287 256.9 44.9796 259.565 44.9796C262.231 44.9796 264.856 45.6287 267.214 46.871C295.597 61.807 338.642 72.271 376.488 75.993C360.495 31.89 314.197 0 259.565 0C204.933 0 158.635 31.89 142.642 75.993Z" fill="#5972A4"/>
</g>
<defs>
<clipPath id="clip0_934_4405">
<rect width="512" height="512" fill="white"/>
</clipPath>
</defs>
</svg>
