<svg width="512" height="512" viewBox="0 0 512 512" fill="none" xmlns="http://www.w3.org/2000/svg">
<g clip-path="url(#clip0_934_4378)">
<path d="M194.935 286.624H315.134V436.071H194.935V286.624Z" fill="#FFD9B3"/>
<path d="M445.368 457.295C443.085 400.4 399.303 387.26 373.014 384.516C361.607 383.327 315.134 384.093 315.134 384.093C315.134 388.76 291.387 393.26 256.001 393.944C220.613 393.26 194.935 388.783 194.935 384.093C194.935 384.093 150.395 383.327 138.987 384.516C112.699 387.26 68.9166 400.4 66.634 457.295C64.6692 471.484 66.634 491.753 66.634 491.753C66.634 491.753 130.623 511.337 251.562 511.989C252.463 512.004 259.541 512.004 260.442 511.989C381.381 511.337 445.37 491.753 445.37 491.753C445.37 491.753 447.333 471.484 445.368 457.295Z" fill="#989836"/>
<path d="M261.221 393.809H250.757C252.482 393.862 254.226 393.908 255.999 393.942C257.774 393.91 259.509 393.862 261.221 393.809Z" fill="#E5E15A"/>
<path d="M261.221 393.809C259.481 393.864 257.74 393.908 255.999 393.942C254.224 393.908 252.48 393.862 250.757 393.809H243.355V511.905C246.072 511.939 248.784 511.975 251.56 511.989C252.461 512.004 259.539 512.004 260.44 511.989C262.402 511.979 264.308 511.949 266.239 511.928V393.809H261.221Z" fill="#E5E15A"/>
<path d="M145.275 182.519L134.142 149.988C134.142 149.988 114.552 145.023 104.221 164.268C93.8895 183.513 120.924 223.056 144.248 226.377C150.713 211.322 145.275 182.519 145.275 182.519ZM366.724 182.519L377.858 149.988C377.858 149.988 397.448 145.023 407.779 164.268C418.11 183.513 391.076 223.056 367.752 226.377C361.287 211.322 366.724 182.519 366.724 182.519Z" fill="#FFD9B3"/>
<path d="M303.276 9.45312C326.769 11.5926 378.431 24.4065 396.237 84.5231C410.982 134.307 392.881 192.534 378.353 210.821C369.117 170.88 303.276 9.45312 303.276 9.45312ZM208.724 9.45312C185.231 11.5947 133.569 24.4065 115.763 84.5252C101.018 134.309 119.119 192.536 133.647 210.823C142.883 170.88 208.724 9.45312 208.724 9.45312Z" fill="#989898"/>
<path d="M194.935 286.624V341.905C210.082 358.453 236.737 379.374 271.426 373.69C290.305 370.599 304.544 362.846 315.136 353.957V286.622L194.935 286.624Z" fill="#F4C69D"/>
<path d="M378.5 229.885C378.5 297.54 323.654 352.386 255.999 352.386C188.343 352.386 133.498 297.54 133.498 229.885V122.501C133.5 54.8458 188.345 0 256.001 0C323.656 0 378.502 54.8458 378.502 122.501V229.885H378.5Z" fill="#FFD9B3"/>
<path d="M364.117 172.611H358.842C355.41 150.207 336.005 132.99 312.656 132.99C289.949 132.99 270.982 149.277 266.797 170.779H245.202C241.02 149.277 222.051 132.99 199.344 132.99C175.995 132.99 156.59 150.205 153.157 172.611H147.882C146.455 172.611 145.086 173.178 144.076 174.188C143.067 175.197 142.5 176.566 142.5 177.993C142.5 179.421 143.067 180.79 144.076 181.799C145.086 182.809 146.455 183.376 147.882 183.376H152.774C154.651 207.435 174.812 226.442 199.344 226.442C224.639 226.442 245.289 206.234 246.034 181.116H265.966C266.711 206.234 287.361 226.442 312.656 226.442C337.188 226.442 357.349 207.435 359.226 183.376H364.117C365.545 183.376 366.914 182.809 367.923 181.799C368.933 180.79 369.5 179.421 369.5 177.993C369.5 176.566 368.933 175.197 367.923 174.188C366.914 173.178 365.545 172.611 364.117 172.611ZM199.344 217.399C178.566 217.399 161.661 200.496 161.661 179.718C161.661 158.94 178.566 142.037 199.344 142.037C220.12 142.037 237.026 158.94 237.026 179.718C237.026 200.496 220.12 217.399 199.344 217.399ZM312.656 217.399C291.88 217.399 274.974 200.496 274.974 179.718C274.974 158.94 291.878 142.037 312.656 142.037C333.434 142.037 350.339 158.94 350.339 179.718C350.339 200.496 333.434 217.399 312.656 217.399Z" fill="black"/>
<path d="M254.916 393.944C254.916 393.944 279.672 388.894 314.911 361.346C319.255 364.101 330.841 377.416 333.737 382.924C327.462 393.485 315.258 420.572 294.327 434.805C282.086 423.786 254.916 393.944 254.916 393.944ZM254.535 393.944C254.535 393.944 229.779 388.894 194.541 361.346C190.196 364.101 178.61 377.416 175.715 382.924C181.99 393.485 194.193 420.572 215.125 434.805C227.366 423.786 254.535 393.944 254.535 393.944Z" fill="#F4F4F4"/>
</g>
<defs>
<clipPath id="clip0_934_4378">
<rect width="512" height="512" fill="white"/>
</clipPath>
</defs>
</svg>
