<svg width="512" height="512" viewBox="0 0 512 512" fill="none" xmlns="http://www.w3.org/2000/svg">
<g clip-path="url(#clip0_934_4365)">
<path d="M359.846 175.63L369.439 146.383C369.439 146.383 386.317 141.917 395.219 159.221C404.12 176.524 380.826 212.076 360.731 215.064C355.161 201.529 359.846 175.63 359.846 175.63ZM148.54 175.63L138.947 146.383C138.947 146.383 122.068 141.917 113.167 159.221C104.265 176.525 127.56 212.076 147.654 215.064C153.225 201.529 148.54 175.63 148.54 175.63Z" fill="#FFDBBD"/>
<path d="M476.48 456.509C476.48 456.509 471.917 439.019 467.355 422.289C454.428 369.819 438.078 366.017 417.546 360.314C397.014 354.611 329.716 332.939 312.606 329.517H199.393C182.283 332.939 114.985 354.611 94.4533 360.314C73.9216 366.017 57.5727 369.819 44.6457 422.289C40.0831 439.019 35.5205 456.509 35.5205 456.509C35.5205 456.509 82.375 510.449 250.012 511.984C251.544 512.006 260.458 512.006 261.989 511.984C429.625 510.449 476.48 456.509 476.48 456.509Z" fill="#F4F4F4"/>
<path d="M315.72 314.979C308.989 297.834 307.441 279.361 307.441 279.361H203.827C203.827 279.361 202.279 297.834 195.548 314.979C201.259 325.595 250.468 353.069 255.176 357.391H255.646C260.355 353.07 310.009 325.596 315.72 314.979Z" fill="#FFDBBD"/>
<path d="M309.524 292.939C307.967 285.004 307.493 279.362 307.493 279.362H203.878C203.878 279.362 203.296 286.289 201.302 295.592C210.739 303.357 234.381 320.711 257.192 320.711C280.388 320.709 301.61 301.171 309.524 292.939Z" fill="#EABEA0"/>
<path d="M254.734 32.4171L254.73 32.4114H254.241L254.237 32.4171C212.985 32.6612 126.745 64.0017 137.077 168.529C142.649 228.457 185.474 308.81 254.232 309.199L254.241 309.208H254.73L254.739 309.199C323.497 308.81 366.323 228.457 371.894 168.529C382.227 64.0017 295.987 32.6612 254.734 32.4171Z" fill="#FFDBBD"/>
<path d="M277.861 373.728C277.861 373.728 258.824 357.1 255.77 357.1L255.765 357.106L255.761 357.1C252.708 357.1 233.671 373.728 233.671 373.728L229.923 391.641C229.923 391.641 243.311 413.249 255.761 413.249L255.765 413.245L255.77 413.249C268.221 413.249 281.609 391.641 281.609 391.641L277.861 373.728Z" fill="#2B3841"/>
<path d="M255.762 401.375H255.753C247.584 401.377 242.803 403.215 241.769 408.26C240.935 412.325 221.45 483.106 213.901 510.49C225.268 511.164 237.287 511.586 250.013 511.702C251.545 511.725 260.459 511.725 261.99 511.702C273.293 511.603 284.593 511.24 295.879 510.613C289.437 485.607 270.611 412.451 269.753 408.27C268.719 403.225 263.93 401.377 255.762 401.375Z" fill="#2B3841"/>
<path d="M196.257 312.977L178.066 335.143L219.07 406.225L255.761 357.177L196.257 312.977ZM315.525 312.977L333.715 335.143L292.712 406.225L255.902 357.177L315.525 312.977Z" fill="white"/>
<path d="M467.355 422.289C454.428 369.819 438.078 366.017 417.546 360.314C404.822 356.779 374.146 347.116 348.577 339.459C335.11 367.437 299.893 432.016 256.008 445.726L255.999 445.774L255.933 445.751L255.866 445.774L255.857 445.726C211.991 432.022 176.783 367.491 163.306 339.494C137.76 347.144 107.157 356.784 94.4525 360.313C73.9208 366.016 57.5719 369.818 44.6438 422.288C40.0812 439.018 35.5186 456.507 35.5186 456.507C35.5186 456.507 82.373 510.447 250.01 511.983C251.542 512.006 260.456 512.006 261.987 511.983C429.623 510.447 476.478 456.507 476.478 456.507C476.478 456.507 471.917 439.019 467.355 422.289Z" fill="#346984"/>
<path d="M421.985 427.464C421.859 441.134 420.541 476.476 417.547 489.326C421.959 487.746 424.764 486.693 424.764 486.693C425.589 476.275 427.642 451.922 421.985 427.464ZM89.7108 427.464C89.8374 441.134 91.1548 476.476 94.1491 489.326C89.737 487.746 86.9322 486.693 86.9322 486.693C86.1075 476.275 84.0532 451.922 89.7108 427.464Z" fill="#448199"/>
<path d="M376.725 89.2831C374.318 77.7979 368.915 70.0392 362.835 65.1755C370.149 47.9551 373.919 29.4538 375.42 19.4469C355.376 16.4538 339.3 13.3603 321.474 18.2971C326.633 10.1893 326.505 7.36624 326.505 7.36624C326.505 7.36624 277.574 0.768718 257.243 11.3756C260.779 3.41959 259.912 -0.0012207 259.912 -0.0012207C230.827 2.73634 180.458 7.94226 161.745 58.5677C151.455 59.47 136.709 67.9929 132.248 89.282C126.512 116.658 136.779 169.215 136.779 169.215C136.846 170.338 143.251 172.155 144.577 169.215C144.205 164.177 145.018 121.335 171.841 96.1373C208.415 112.702 280.367 132.359 339.165 98.1277C363.997 123.528 364.757 164.308 364.394 169.215C365.72 172.155 372.125 170.338 372.193 169.215C372.193 169.216 382.46 116.659 376.725 89.2831Z" fill="#603E19"/>
</g>
<defs>
<clipPath id="clip0_934_4365">
<rect width="512" height="512" fill="white"/>
</clipPath>
</defs>
</svg>
