<svg width="512" height="512" viewBox="0 0 512 512" fill="none" xmlns="http://www.w3.org/2000/svg">
<g clip-path="url(#clip0_934_4393)">
<path d="M428.83 482.231L417.656 392.839C416.83 386.228 414.15 379.985 409.926 374.832C405.702 369.68 400.106 365.827 393.786 363.72L350.699 349.358C344.783 347.385 338.292 348.641 333.729 352.529L321.038 348.298C317.522 347.126 314.465 344.878 312.298 341.872C310.132 338.866 308.966 335.255 308.966 331.549V303.078L346.992 287.234C356.644 283.212 364.89 276.424 370.69 267.724C376.491 259.023 379.586 248.801 379.585 238.344V229.517C394.211 229.517 406.068 217.66 406.068 203.034C406.076 196.696 403.8 190.568 399.659 185.771C407.153 158.496 428.214 72.2194 406.068 35.3103L414.896 0C414.896 0 322.206 2.20689 273.654 17.6551L291.31 0C291.31 0 167.172 0 141.249 44.1301L141.241 44.1378C141.241 44.1378 97.1031 43.7704 97.1031 97.1032C97.1031 116.623 107.991 165.365 112.665 185.395C108.321 190.243 105.923 196.525 105.931 203.034C105.931 217.66 117.787 229.517 132.413 229.517V238.344C132.414 248.801 135.509 259.024 141.309 267.724C147.109 276.425 155.355 283.214 165.007 287.236L203.034 303.08V331.55C203.034 335.256 201.868 338.867 199.702 341.873C197.535 344.879 194.478 347.128 190.962 348.299L178.27 352.53C173.708 348.643 167.217 347.386 161.301 349.359L118.214 363.721C111.893 365.828 106.298 369.681 102.074 374.833C97.8496 379.986 95.1696 386.229 94.3434 392.84L83.1699 482.232C81.1937 498.038 93.518 511.999 109.447 511.999H402.551C418.481 511.999 430.806 498.038 428.83 482.231Z" fill="#FFD7A3"/>
<path d="M308.965 303.08L203.034 303.081V331.551C203.034 337.906 199.518 343.503 194.188 346.623C268.222 359.581 308.965 303.08 308.965 303.08Z" fill="#FDC88E"/>
<path d="M114.758 194.206C114.758 194.206 97.103 121.959 97.103 97.1032C97.103 43.7704 141.241 44.1378 141.241 44.1378L141.249 44.1301C167.172 0 291.31 0 291.31 0L273.654 17.6551C322.206 2.20689 414.895 0 414.895 0L406.068 35.3103C432.551 79.4481 397.24 194.206 397.24 194.206H114.758Z" fill="#734A3E"/>
<path d="M291.31 0C291.31 0 167.172 0 141.249 44.1301L141.241 44.1378C141.241 44.1378 97.103 43.7704 97.103 97.1032C97.103 121.959 114.758 194.206 114.758 194.206C114.758 194.206 298.299 112.184 414.895 0C414.895 0 322.206 2.20689 273.654 17.6551L291.31 0Z" fill="#623F33"/>
<path d="M379.585 176.551V158.896C379.585 134.52 359.824 114.758 335.447 114.758H176.551C152.175 114.758 132.413 134.52 132.413 158.896V176.551C117.787 176.551 105.931 188.408 105.931 203.034C105.931 217.66 117.787 229.517 132.413 229.517V238.344C132.414 248.801 135.509 259.024 141.309 267.724C147.109 276.425 155.355 283.214 165.007 287.236L222.045 311.002C232.804 315.484 244.343 317.792 255.998 317.792C267.652 317.792 279.192 315.484 289.95 311.002L346.992 287.235C356.644 283.213 364.89 276.424 370.69 267.724C376.491 259.024 379.586 248.801 379.585 238.344V229.517C394.211 229.517 406.068 217.66 406.068 203.034C406.068 188.408 394.211 176.551 379.585 176.551Z" fill="#FFE1B2"/>
<path d="M194.206 211.862C189.351 211.862 185.379 207.889 185.379 203.034V194.206C185.379 189.351 189.351 185.379 194.206 185.379C199.062 185.379 203.034 189.351 203.034 194.206V203.034C203.034 207.889 199.062 211.862 194.206 211.862ZM317.792 211.862C312.937 211.862 308.965 207.889 308.965 203.034V194.206C308.965 189.351 312.937 185.379 317.792 185.379C322.648 185.379 326.62 189.351 326.62 194.206V203.034C326.62 207.889 322.648 211.862 317.792 211.862Z" fill="#623F33"/>
<path d="M256 273.896C240.305 273.896 225.625 270.034 215.724 263.298C211.694 260.557 210.646 255.065 213.392 251.035C216.129 247.01 221.625 245.962 225.655 248.704C232.594 253.423 243.939 256.242 256 256.242C268.06 256.242 279.405 253.423 286.344 248.704C287.302 248.051 288.38 247.593 289.515 247.356C290.65 247.12 291.82 247.11 292.959 247.327C294.098 247.543 295.183 247.982 296.152 248.619C297.121 249.255 297.955 250.076 298.607 251.035C299.259 251.993 299.716 253.071 299.952 254.206C300.188 255.34 300.198 256.511 299.982 257.649C299.765 258.788 299.326 259.873 298.69 260.842C298.054 261.811 297.234 262.646 296.275 263.298C286.375 270.034 271.694 273.896 256 273.896Z" fill="#E4B07B"/>
<path d="M428.83 482.232L417.656 392.84C416.83 386.229 414.15 379.986 409.926 374.833C405.702 369.681 400.106 365.828 393.786 363.721L350.699 349.359C343.196 346.857 334.754 349.529 330.516 356.207C314.867 380.862 287.364 397.241 255.999 397.241C224.635 397.241 197.132 380.861 181.484 356.207C177.245 349.529 168.804 346.857 161.301 349.359L118.214 363.721C111.893 365.828 106.298 369.681 102.074 374.833C97.8495 379.986 95.1696 386.229 94.3434 392.84L83.1699 482.232C81.1936 498.038 93.5191 512 109.448 512H402.552C418.481 512 430.806 498.038 428.83 482.232Z" fill="#00BEA4"/>
<path d="M101.702 375.357C97.7828 380.319 95.1589 386.314 94.3434 392.839L83.1699 482.231C81.1936 498.038 93.5191 511.999 109.448 511.999H158.896V454.546C158.896 446.053 155.835 437.845 150.275 431.425L101.702 375.357ZM410.296 375.357C414.216 380.319 416.84 386.314 417.655 392.839L428.829 482.231C430.805 498.038 418.48 511.999 402.55 511.999H353.103V454.546C353.103 446.053 356.163 437.845 361.724 431.425L410.296 375.357Z" fill="#00AB9A"/>
<path d="M178.754 268.935C171.601 261.266 167.725 251.146 167.725 240.659V140.621C195.822 138.514 284.408 130.853 335.449 114.758H176.551C173.512 114.758 170.569 115.113 167.724 115.73V115.648C147.578 119.738 132.413 137.543 132.413 158.896V176.551C117.787 176.551 105.931 188.408 105.931 203.034C105.931 217.66 117.787 229.517 132.413 229.517V238.344C132.413 248.801 135.508 259.024 141.309 267.724C147.109 276.425 155.355 283.214 165.007 287.236L222.044 311.002C224.833 312.158 227.678 313.17 230.57 314.035C205.363 295.594 188.584 279.474 178.754 268.935Z" fill="#FFD7A3"/>
</g>
<defs>
<clipPath id="clip0_934_4393">
<rect width="512" height="512" fill="white"/>
</clipPath>
</defs>
</svg>
