<svg width="512" height="512" viewBox="0 0 512 512" fill="none" xmlns="http://www.w3.org/2000/svg">
<g clip-path="url(#clip0_878_4365)">
<path d="M498.195 222.695C498.183 222.684 498.171 222.672 498.16 222.66L289.304 13.8125C280.402 4.90625 268.566 0 255.976 0C243.386 0 231.55 4.90234 222.644 13.8086L13.898 222.551C13.8277 222.621 13.7574 222.695 13.687 222.766C-4.5942 241.152 -4.56295 270.984 13.7769 289.324C22.1558 297.707 33.2222 302.563 45.0542 303.07C45.5347 303.117 46.0191 303.141 46.5074 303.141H54.8316V456.84C54.8316 487.254 79.5777 512 110 512H191.71C199.992 512 206.71 505.285 206.71 497V376.5C206.71 362.621 218 351.332 231.878 351.332H280.074C293.953 351.332 305.242 362.621 305.242 376.5V497C305.242 505.285 311.957 512 320.242 512H401.953C432.375 512 457.121 487.254 457.121 456.84V303.141H464.839C477.425 303.141 489.261 298.238 498.171 289.332C516.531 270.961 516.539 241.078 498.195 222.695Z" fill="#B9BDC1"/>
</g>
<defs>
<clipPath id="clip0_878_4365">
<rect width="512" height="512" fill="white"/>
</clipPath>
</defs>
</svg>
