<svg id="Capa_1" enable-background="new 0 0 512 512" height="512" viewBox="0 0 512 512" width="512" xmlns="http://www.w3.org/2000/svg"><g><path d="m244.618 140.695 20.653 41.305h175.729v-52h-95c-19.299 0-35-15.701-35-35v-95h-225c-8.284 0-15 6.716-15 15v87h111.008c26.685 0 50.676 14.827 62.61 38.695z"/><path d="m346 100h86.213l-91.213-91.213v86.213c0 2.757 2.243 5 5 5z"/><path d="m271 332v-35h-30v35c0 8.284-6.716 15-15 15h-35v30h35c8.284 0 15 6.716 15 15v35h30v-35c0-8.284 6.716-15 15-15h35v-30h-35c-8.284 0-15-6.716-15-15z"/><path d="m472 212h-216c-5.682 0-10.876-3.21-13.417-8.292l-24.798-49.597c-6.775-13.551-20.626-22.111-35.777-22.111h-142.008c-22.091 0-40 17.909-40 40v300c0 22.091 17.909 40 40 40h432c22.091 0 40-17.909 40-40v-220c0-22.091-17.909-40-40-40zm-121 180c0 8.284-6.716 15-15 15h-35v35c0 8.284-6.716 15-15 15h-60c-8.284 0-15-6.716-15-15v-35h-35c-8.284 0-15-6.716-15-15v-60c0-8.284 6.716-15 15-15h35v-35c0-8.284 6.716-15 15-15h60c8.284 0 15 6.716 15 15v35h35c8.284 0 15 6.716 15 15z"/><path d="m471 123.812v58.188h1c14.865 0 28.652 4.672 40 12.604v-17.604c0-25.49-17.432-46.98-41-53.188z"/></g></svg>