<svg width="85" height="105" viewBox="0 0 85 105" fill="none" xmlns="http://www.w3.org/2000/svg">
<path d="M84.8611 84.0772C44.4375 120.515 14.0139 100.02 0.840271 86.7529C1.06249 83.8826 1.27777 81.0124 1.49305 78.1421C1.90277 72.6795 2.34027 67.217 2.91666 61.7683C3.31944 58.0154 4.60416 54.3529 5.38193 50.6278C7.2361 41.8154 6.52777 33.1699 3.65971 24.6494C3.38888 23.8502 3.16666 23.0371 2.95833 22.21C2.76388 21.4386 2.59027 20.6602 2.40972 19.8749C11.5555 10.868 47.8333 -19.739 83.5208 20.9382C83.2778 21.8209 83.0278 22.7035 82.7847 23.5792C82.4861 24.6494 82.1944 25.7197 81.9167 26.7969C81.5139 28.3537 81.1389 29.9174 80.8264 31.488C78.9792 40.7452 79.6944 49.8564 82.9722 58.7938C83.7847 61.0108 84.2014 63.617 83.9444 65.9521C83.5278 69.7467 83.6805 73.4996 84.0417 77.2247C84.2639 79.5182 84.5625 81.7977 84.8611 84.0772Z" fill="black"/>
</svg>
