<svg width="93" height="76" viewBox="0 0 93 76" fill="none" xmlns="http://www.w3.org/2000/svg">
<path d="M90 71.4192H89.7778C89.375 72.9273 88.9514 74.4354 88.5208 75.9365C52.8333 35.2593 16.5556 65.8663 7.40972 74.8732C7.1875 73.8933 6.95833 72.9134 6.6736 71.9474C6.41666 71.0717 5.89583 70.2724 5.43749 69.4663C5.34027 69.2995 5.24999 69.1327 5.15971 68.9659C4.84721 69.0145 4.53471 69.0701 4.21527 69.1257C4.07638 69.6122 3.93749 70.1057 3.80555 70.5921C1.31249 55.5319 -2.95834 22.7844 3.98611 8.20372C4.84722 8.09253 5.7361 8.02303 6.64583 7.99523C6.74305 7.99523 6.84027 7.98827 6.9375 7.98132C14.3125 7.65468 19.9097 4.17283 25.3333 0.121094C32.8403 4.93036 47.8472 12.0817 67.743 0.433844C72.6875 4.32574 79.2083 8.40526 85.3889 10.0246C86.2708 10.2609 87.1736 10.4624 88.0972 10.6153C88.1875 10.8169 88.2778 10.3304 88.3611 10.5389C94.0417 24.3412 92.2153 52.203 90 71.4192Z" fill="black"/>
</svg>
