<svg width="53" height="61" viewBox="0 0 53 61" fill="none" xmlns="http://www.w3.org/2000/svg">
<path d="M51.8819 43.0062C51.8333 45.5845 50.9097 48.3923 47.6736 48.6425C46.8819 48.705 45.6597 47.9961 45.5486 48.8857C45.3958 50.1228 44.5417 52.7567 44.3889 54.0008C44.2847 54.7861 44.1875 55.5714 44.0972 56.3567C29.4722 62.9035 17 59.4286 10.0972 56.5513C10.0278 55.7035 9.95834 54.8486 9.875 54.0008C9.83334 53.5143 9.78473 53.0347 9.73612 52.5483C9.45139 49.7197 8.35416 47.4193 5.0625 46.9467C4.34028 46.8425 3.53472 46.3212 3.04861 45.7513C1.38195 43.7984 0.0763944 34.5205 1.67362 32.5259C2.65278 31.2957 5.42361 33.1166 5.71528 31.5529C6.16667 29.183 6.17362 23.2548 6.34028 20.8293C6.85417 13.3166 10.8264 7.86794 16.6667 3.58686C23.9583 -1.76449 32.3958 -0.749819 38.9931 5.51196C45.8194 11.9961 48.2847 19.9398 47.8264 28.8842C47.75 30.3019 47.0486 33.0054 48.0972 33.8185C49.3264 34.7776 50.8611 33.6795 51.4306 34.7011C52.5069 36.6262 51.9236 40.7614 51.8819 43.0062Z" fill="black"/>
</svg>
