<svg id="svg" viewBox="0 0 170 170" xmlns="http://www.w3.org/2000/svg"><path d="m164.56 110.08c0-25.67-20.89-46.56-46.56-46.56s-46.56 20.89-46.56 46.56c0 2.76 2.24 5 5 5s5-2.24 5-5c0-20.16 16.4-36.56 36.56-36.56s36.56 16.4 36.56 36.56c0 16.83-11.59 31.27-27.36 35.38h.02c2.13-1.77 2.44-4.92.68-7.05-1.75-2.13-4.91-2.44-7.04-.68l-11.4 9.38c-1.15.95-1.82 2.37-1.82 3.86s.67 2.91 1.82 3.86l11.4 9.38c.93.77 2.06 1.14 3.18 1.14 1.44 0 2.87-.62 3.86-1.82 1.76-2.13 1.45-5.28-.68-7.04l-.77-.63c21.74-4.01 38.12-23.2 38.12-45.78z"/><path d="m118 78c-2.76 0-5 2.24-5 5v32.39l22.07 13.61c.82.5 1.72.75 2.62.75 1.68 0 3.32-.84 4.26-2.38 1.45-2.35.72-5.43-1.63-6.88l-17.32-10.68v-26.81c0-2.76-2.24-5-5-5z"/><path d="m29.72 82.66h10c2.77 0 5-2.24 5-5s-2.23-5-5-5h-10c-2.76 0-5 2.24-5 5s2.24 5 5 5z"/><path d="m75.1 73.25c-.71-.37-1.52-.59-2.38-.59h-10c-2.76 0-5 2.24-5 5s2.24 5 5 5h10c2.77 0 5-2.24 5-5 0-1.9-1.06-3.56-2.62-4.41z"/><path d="m38.3 102.19h10c2.77 0 5-2.24 5-5s-2.23-5-5-5h-10c-2.76 0-5 2.24-5 5s2.24 5 5 5z"/><path d="m72.72 53.13h-10c-2.76 0-5 2.24-5 5s2.24 5 5 5h10c2.77 0 5-2.24 5-5s-2.23-5-5-5z"/><path d="m95.72 53.13c-2.76 0-5 2.24-5 5 0 .77.17 1.49.48 2.14 5.42-2.92 11.38-4.99 17.68-6.01-.86-.71-1.97-1.13-3.16-1.13z"/><path d="m29.72 63.13h10c2.77 0 5-2.24 5-5s-2.23-5-5-5h-10c-2.76 0-5 2.24-5 5s2.24 5 5 5z"/><path d="m110.72 38.6c0-2.76-2.24-5-5-5h-80.44c-2.76 0-5 2.24-5 5s2.24 5 5 5h80.45c2.76 0 5-2.24 5-5z"/><path d="m61.61 112.33h-46.61v-88.26h101v29.49c.66-.03 1.33-.04 2-.04 2.72 0 5.39.19 8 .57v-31.02c0-4.96-4.04-9-9-9h-19v-4.08c0-2.76-2.24-5-5-5s-5 2.24-5 5v4.08h-19v-4.08c0-2.76-2.24-5-5-5s-5 2.24-5 5v4.08h-19v-4.08c0-2.76-2.24-5-5-5s-5 2.24-5 5v4.08h-16c-4.96 0-9 4.04-9 9v90.26c0 4.97 4.04 9 9 9h53.79c-3.26-2.31-5.56-5.88-6.18-10z"/></svg>