<svg width="63" height="207" viewBox="0 0 63 207" fill="none" xmlns="http://www.w3.org/2000/svg">
<path d="M62.8055 62.5929C62.6805 63.0376 62.5486 63.4755 62.4166 63.9064C58.8333 75.3736 58.3264 87.3272 56.8611 99.128C55.3958 110.929 52.4028 122.125 46.2916 132.577C39.9861 143.364 37.7847 155.387 38.1458 167.91C38.3611 175.291 38.1736 182.679 38.118 190.066C38.1111 190.963 37.8819 194.382 37.7083 196.022C37.6666 196.404 37.3472 196.696 36.9583 196.696C36.8472 196.696 36.7361 196.696 36.625 196.696C36.2222 196.696 34.493 196.397 34.4514 195.994C34.1389 193.006 35.0277 187.543 34.618 185.021C34.4722 184.103 35.1041 183.144 34.7569 182.31C34.6389 182.025 34.4791 181.761 34.2986 181.504C33.7916 180.788 32.7569 180.719 32.1597 181.358C31.8472 181.692 31.5972 182.032 31.5347 182.401C30.743 186.953 30.1944 191.553 29.4791 196.119C29.2083 197.815 28.8194 199.525 28.2361 201.137C28.1111 201.485 27.7361 201.978 27.3194 202.423L27.3125 202.43C26.9166 202.854 26.2152 202.764 25.9444 202.242C25.868 202.096 25.7916 201.95 25.7291 201.804C25.5139 201.346 25.3541 200.901 25.368 200.616C25.6527 196.022 26.118 191.442 26.4514 186.848C26.5278 185.75 26.3889 184.638 26.3264 183.526C26.3125 183.325 26.1736 183.158 25.9722 183.116H25.9583C25.3889 182.998 24.8055 183.283 24.5486 183.811C24.0902 184.743 23.6111 185.674 23.2916 186.647C21.6319 191.686 20.7847 196.759 19.118 201.797C18.868 202.548 18.0139 204.411 17.3819 205.682C17.0903 206.266 16.368 206.489 15.7986 206.162C15.7361 206.127 15.6805 206.092 15.618 206.058C15.1944 205.821 14.9514 205.356 14.993 204.869C15.3194 201.283 16.0625 196.682 16.4861 193.305C16.8958 189.99 17.7639 186.723 18.1528 183.408C18.2639 182.512 17.368 181.497 16.9375 180.538C16.1666 181.17 15.1041 181.643 14.6805 182.456C12.4514 186.765 10.4791 191.213 8.18747 195.487C7.74997 196.3 6.58331 198.253 5.56247 199.671C4.91664 200.56 3.52775 200.602 2.94442 199.671C2.83331 199.49 2.75692 199.282 2.74997 199.038C2.69442 197.426 4.13192 194.966 4.36108 194.319C5.99997 189.663 8.27081 185.222 9.77775 180.531C11.0208 176.639 11.6111 172.518 12.243 168.459C12.3194 167.98 11.7291 167.396 11.1736 166.819C10.8055 166.437 10.1736 166.444 9.84025 166.861C9.59025 167.167 9.38886 167.486 9.06247 167.882C7.83331 169.377 7.58331 171.142 6.24303 172.518C5.93747 172.831 3.97914 175.291 2.81247 176.118C1.88192 176.778 1.02081 175.889 0.756917 175.722C0.166639 175.34 1.12497 171.67 1.43747 170.989C4.26386 164.797 6.83331 157.458 13.5972 154.532C19.4444 151.995 22.4166 147.784 24.1111 141.8C26.6389 132.848 28.4166 123.814 28.5764 114.522C28.743 104.445 31.3611 94.979 34.25 85.4021C36.7916 76.9651 37.6736 68.0207 39.2708 59.3056C39.4097 58.5064 39.2153 57.6099 39.5139 56.894C42.8125 48.9226 41.9375 40.6454 41.7847 32.3265C41.6944 27.3434 42.7083 22.1867 44.0833 17.3635C46.8958 7.54344 53.2916 1.40676 62.9861 0.183594C56.0416 14.7851 60.3125 47.5326 62.8055 62.5929Z" fill="black"/>
</svg>
