<svg width="45" height="274" viewBox="0 0 45 274" fill="none" xmlns="http://www.w3.org/2000/svg">
<path d="M44.5972 28.6998C44.5972 28.7693 44.5972 28.8388 44.5903 28.9083C43.9306 43.2249 43.9167 57.5346 43.3333 71.8581C43.0903 77.7446 42.1389 83.6589 42.4097 89.5385C42.9375 101.165 42.2917 112.647 39.6597 124.003C39.3542 125.33 39.0833 126.817 39.3542 128.11C42.5764 143.559 40.6042 158.988 39.4167 174.43C38.2917 188.955 37.5556 203.439 39.1597 218.061C39.9097 224.907 38.0208 232.037 37.3542 239.043C36.9306 243.532 35.7431 248.008 35.5069 252.504C35.2778 256.904 35.0139 260.9 31.9514 264.284C30.8194 265.535 30.4792 268.934 29.2778 270.067C28 271.283 25.8472 274.306 24.5833 273.952C20.3542 272.763 15.2778 270.65 11.6597 268.246C6 264.493 6.29167 256.932 10.2083 251.26C13.0278 247.181 15.9028 243.122 18.3958 238.848C23.132 230.738 22.2222 221.765 21.1736 213.085C19.1528 196.461 16.3403 179.935 14.1667 163.325C12.25 148.633 11.1389 133.899 13.2569 119.082C14.4792 110.582 13.007 102.25 10.7986 94.0489C8.14584 84.2218 5.18056 74.4782 2.84723 64.5817C-0.0416634 52.3083 -0.0347158 39.8334 1.0764 27.3029C1.85417 18.5045 2.54167 9.69907 3.21528 0.886719C10.9444 12.1385 25.5764 28.7276 44.5972 28.6998Z" fill="black"/>
</svg>
