<svg width="512" height="512" viewBox="0 0 512 512" fill="none" xmlns="http://www.w3.org/2000/svg">
<path fill-rule="evenodd" clip-rule="evenodd" d="M144 170.667C144 138.266 117.734 112 85.3334 112C52.9327 112 26.6667 138.266 26.6667 170.667C26.6667 203.067 52.9326 229.333 85.3334 229.333C117.734 229.333 144 203.067 144 170.667ZM144 341.333C144 308.933 117.734 282.667 85.3334 282.667C52.9327 282.667 26.6667 308.933 26.6667 341.333C26.6667 373.734 52.9326 400 85.3334 400C117.734 400 144 373.734 144 341.333ZM197.333 128C197.333 119.163 204.497 112 213.333 112H341.333C350.17 112 357.333 119.163 357.333 128C357.333 136.837 350.17 144 341.333 144H213.333C204.497 144 197.333 136.837 197.333 128ZM213.333 282.667C204.497 282.667 197.333 289.83 197.333 298.667C197.333 307.503 204.497 314.667 213.333 314.667H341.333C350.17 314.667 357.333 307.503 357.333 298.667C357.333 289.83 350.17 282.667 341.333 282.667H213.333ZM197.333 213.333C197.333 204.497 204.497 197.333 213.333 197.333H469.333C478.17 197.333 485.333 204.497 485.333 213.333C485.333 222.17 478.17 229.333 469.333 229.333H213.333C204.497 229.333 197.333 222.17 197.333 213.333ZM213.333 368C204.497 368 197.333 375.163 197.333 384C197.333 392.837 204.497 400 213.333 400H469.333C478.17 400 485.333 392.837 485.333 384C485.333 375.163 478.17 368 469.333 368H213.333Z" fill="#28303F"/>
</svg>
