<svg width="88" height="52" viewBox="0 0 88 52" fill="none" xmlns="http://www.w3.org/2000/svg">
<path d="M87.5556 19.063C72.8056 40.2669 59.0417 49.2947 46.8542 51.2685C46.8403 50.6916 46.7986 50.1148 46.7014 49.5449C46.5139 48.419 44.9722 47.5225 44.0486 46.5217C43.2708 47.5086 42.3403 48.419 41.7639 49.5102C41.4514 50.1009 41.5972 50.9349 41.5972 51.6993C22.5764 51.7271 7.94444 35.138 0.215271 23.8862C0.47916 20.4808 0.736106 17.0824 0.993051 13.6769C1.22222 10.6677 1.45833 7.65842 1.69444 4.64916C1.74305 4.01672 1.79166 3.38428 1.84027 2.75185C5.27777 6.21981 9.90278 10.1742 15.5694 13.4893C28.3611 20.9534 46.4792 25.1024 68.4583 12.7943C74.0208 9.6808 79.8264 5.51092 85.8611 0.0761719C86.2292 2.88389 86.5903 5.68467 86.7986 8.50629C86.8958 9.85455 86.9931 11.2028 87.0903 12.5511C87.25 14.7194 87.4097 16.8947 87.5556 19.063Z" fill="black"/>
</svg>
