<svg width="44" height="27" viewBox="0 0 44 27" fill="none" xmlns="http://www.w3.org/2000/svg">
<path d="M42.743 20.4354C22.8472 32.0833 7.84026 24.9319 0.333313 20.1227C1.09026 19.5597 1.84026 18.9829 2.59026 18.4061C3.25692 17.8918 3.85415 17.3358 4.36109 16.7381C6.0972 14.7227 6.93749 12.2485 6.72221 9.33657C6.51388 6.4107 6.33331 3.47788 6.0972 0.552016C13 3.42924 25.4722 6.90414 40.0972 0.357422C39.5417 4.93039 39.0764 9.51727 38.9583 14.1041C38.9375 14.8339 39.2222 16.342 39.6875 17.1343C40.3889 18.3713 42.1944 20.2756 43.2153 21.0956C43.5208 21.3389 42.4375 20.1922 42.743 20.4354Z" fill="black"/>
</svg>
