<svg width="45" height="276" viewBox="0 0 45 276" fill="none" xmlns="http://www.w3.org/2000/svg">
<path d="M36.2361 253.154C42.6597 262.661 38.8264 269.798 29.3333 273.822C21.7083 277.054 19.4514 274.225 13.8195 267.727C10.7778 264.211 11.6528 260.291 11.2361 255.739C10.8056 250.971 9.87501 246.204 8.7014 241.554C6.71529 233.743 5.56945 225.987 7.02084 217.904C9.02779 206.736 7.60417 195.547 6.75695 184.357C5.71528 170.652 4.98612 156.927 4.11807 143.208C8.63196 131.74 3.06251 120.496 3.35418 109.119C3.39584 107.388 3.05556 105.637 3.18751 103.92C4.72223 84.8779 2.00001 66.044 0.611123 47.1474C0.375011 43.9297 0.60418 40.6841 0.645847 37.4525C0.673625 35.7289 0.895838 33.9776 0.854172 32.2679C13.0417 30.2942 26.8056 21.2664 41.5556 0.0625C42.6181 14.9976 43.5903 29.9397 44.6042 44.8748C45.7153 61.1513 41.132 76.4617 36.75 91.8278C35.5972 95.8934 34.3611 100.181 34.4653 104.33C35.1528 132.074 32.7778 159.595 28.3681 186.908C26.4028 199.14 24.4445 211.281 23.9097 223.679C23.6181 230.449 24.8056 236.537 28.5347 242.11C31.0278 245.842 33.7222 249.435 36.2361 253.154Z" fill="black"/>
</svg>
