<svg width="66" height="204" viewBox="0 0 66 204" fill="none" xmlns="http://www.w3.org/2000/svg">
<path d="M65.0486 171.991C64.2291 172.297 61.4514 172.339 60.9027 171.825C59.5208 170.539 59.1805 167.495 58 165.994C57.7014 165.611 57.3889 165.236 57.0833 164.868C56.743 164.458 56.118 164.43 55.75 164.819C55.2986 165.292 54.8541 165.764 54.6805 166.32C54.3819 167.259 53.7152 168.44 54.0069 169.399C54.4791 170.991 53.5069 172.256 54.375 174.695C55.8819 178.941 59.0694 183.611 60.8055 189.15C61.2847 190.686 62.6805 193.55 63.0139 195.113C63.1458 195.732 62.7083 196.851 62.2014 197.108C61.7083 197.372 59.7569 197.073 59.4375 196.608C58.4791 195.218 57.7291 192.271 57.0625 190.707C55.5347 187.114 54.1736 183.438 52.5694 179.879C52.3264 179.351 51.7291 178.976 51.1319 178.608C50.7014 178.344 50.1389 178.483 49.8889 178.92C49.4791 179.629 49.0486 180.338 49.1389 180.977C49.9444 186.579 51.0555 192.139 51.8889 197.733C52.0069 198.498 52.5208 202.779 52.3194 203.585C52.1666 204.211 51.4305 203.78 50.9166 203.398C50.1319 202.814 48.6666 199.443 48.3819 198.672C47.0277 195.016 46.125 191.187 44.9444 187.462C44.6528 186.537 44.1389 185.683 43.6736 184.814C43.4861 184.466 43.0903 184.279 42.7083 184.362C42.7014 184.362 42.7014 184.362 42.6944 184.362C42.3055 184.445 42.0277 184.779 42 185.168C41.8958 186.572 41.75 187.976 41.7639 189.38C41.7916 192.042 42.1041 194.703 41.9722 197.351C41.9375 198.032 41.5208 201.472 41.0833 202.133C40.7638 202.619 40.0625 201.98 39.6736 201.542C39.1875 201 38.7222 198.366 38.6319 197.761C37.9583 193.195 37.5208 188.594 37.0139 184.001C36.9652 183.549 37.1736 183.007 37 182.632C36.7639 182.117 36.4722 181.638 36.1666 181.158C35.8541 180.672 35.1805 180.595 34.7708 180.998C34.2708 181.506 33.7847 182.013 33.6388 182.611C33.1388 184.737 33.0833 186.961 32.743 189.123C32.6736 189.574 32.4861 192.792 32.2639 193.272C32.0208 193.814 31.2986 193.988 30.8611 193.577C29.2013 192.055 29.4722 187.184 29.3819 185.335C28.9444 176.794 28.7291 168.245 28.2222 159.718C27.5277 148.126 24.1458 137.354 18.7639 127.033C13.0625 116.101 9.8472 104.307 8.36109 92.0269C7.27081 82.9852 5.87497 73.9783 4.51386 64.9713C4.35414 63.908 3.73608 62.9142 3.24302 61.9065C3.09719 61.6076 2.79164 61.413 2.45831 61.413C2.30553 61.413 2.1597 61.413 2.01387 61.4061C4.22914 42.1899 6.05553 14.3281 0.374976 0.525773C0.291643 0.317279 0.201362 0.803766 0.111084 0.602221C0.611084 0.692569 1.12497 0.762072 1.63886 0.82462C13.5972 2.24933 21.4722 11.6524 22.2708 24.3289C22.5972 29.5065 22.8055 34.7258 22.7847 39.9242C22.7778 41.8632 22.8819 43.837 23.2083 45.7412C24.5277 53.4625 25.8263 61.1906 27.3888 68.8632C28.3263 73.4848 29.3472 78.1621 31 82.5543C34.7083 92.4022 36.7361 102.542 37.0208 113.008C37.3125 123.774 39.6597 134.073 43.2083 144.164C44.5903 148.091 46.9444 151.594 50.9722 153.116C58.2708 155.875 61.875 161.33 64.5625 168.148C64.8333 168.885 65.3889 171.866 65.0486 171.991Z" fill="black"/>
</svg>
