<svg width="512" height="512" viewBox="0 0 512 512" fill="none" xmlns="http://www.w3.org/2000/svg">
<path d="M435.629 260.693C426.882 260.693 419.629 253.439 419.629 244.693V173.867C419.629 147.414 398.082 125.867 371.629 125.867H76.375C67.6283 125.867 60.375 118.614 60.375 109.867C60.375 101.121 67.6283 93.8672 76.375 93.8672H371.629C415.789 93.8672 451.629 129.707 451.629 173.867V244.693C451.629 253.653 444.376 260.693 435.629 260.693Z" fill="#292D32"/>
<path d="M143.788 193.493C139.735 193.493 135.682 191.999 132.482 188.799L65.0684 121.386C62.0817 118.399 60.375 114.345 60.375 110.079C60.375 105.812 62.0817 101.759 65.0684 98.7728L132.482 31.3588C138.668 25.1721 148.908 25.1721 155.095 31.3588C161.282 37.5454 161.282 47.7867 155.095 53.9733L98.9889 110.079L155.095 166.186C161.282 172.372 161.282 182.612 155.095 188.799C151.895 191.786 147.842 193.493 143.788 193.493Z" fill="#292D32"/>
<path d="M435.629 417.921H140.375C96.215 417.921 60.375 382.081 60.375 337.921V267.094C60.375 258.347 67.6283 251.094 76.375 251.094C85.1217 251.094 92.375 258.347 92.375 267.094V337.921C92.375 364.374 113.922 385.921 140.375 385.921H435.629C444.376 385.921 451.629 393.174 451.629 401.921C451.629 410.667 444.376 417.921 435.629 417.921Z" fill="#292D32"/>
<path d="M368.217 485.333C364.164 485.333 360.111 483.841 356.911 480.641C350.724 474.454 350.724 464.213 356.911 458.026L413.017 401.921L356.911 345.814C350.724 339.627 350.724 329.387 356.911 323.201C363.098 317.014 373.337 317.014 379.524 323.201L446.938 390.613C449.924 393.6 451.631 397.654 451.631 401.921C451.631 406.187 449.924 410.24 446.938 413.227L379.524 480.641C376.537 483.841 372.484 485.333 368.217 485.333Z" fill="#292D32"/>
</svg>
