<svg width="120" height="191" viewBox="0 0 120 191" fill="none" xmlns="http://www.w3.org/2000/svg">
<path d="M117.506 91.0201C117.114 90.5698 116.655 90.1279 116.304 89.6693C116.279 89.6943 116.254 89.7193 116.221 89.7443C115.411 90.5448 114.243 100.401 113.934 101.36C111.489 108.99 110.855 108.331 108.585 116.02C105.906 125.109 104.262 133.564 105.864 142.762C107.608 152.752 109.845 162.683 109.728 172.898C109.695 175.65 109.244 178.402 109.72 181.162C109.878 182.104 110.045 183.046 110.22 183.989C57.1434 195.388 21.9507 189.309 6.31142 184.722C6.54509 183.53 6.8038 182.346 7.09589 181.162C7.36294 180.028 7.65502 178.894 7.97215 177.768C8.29762 176.592 7.50485 172.781 7.44643 171.547C6.93736 160.257 10.0001 151.793 12.9794 140.819C15.4496 131.721 11.7443 122.499 7.98886 113.585C5.64379 108.006 5.19317 102.828 3.32379 97.0407C2.81472 95.473 3.76609 93.1298 2.8481 91.0868C2.61443 90.5532 2.36405 89.9861 2.10534 89.3774C2.04693 89.4691 1.99685 89.5692 1.94678 89.6526C0.569784 75.5684 -1.68347 43.3226 2.78967 15.1543C3.30709 15.0209 3.81613 14.8791 4.3252 14.7207C14.3063 11.8355 23.4362 7.32423 32.1238 1.32034C32.4409 1.10354 32.7497 0.87839 33.0418 0.669922C44.2831 2.78796 62.4761 4.57245 84.6082 0.744967C93.8966 7.15746 103.527 12.6193 114.777 14.9458C115.069 15.0125 115.361 15.0709 115.653 15.1209C115.912 16.5302 116.162 17.9561 116.388 19.3904C120.577 45.7908 118.866 75.7686 117.506 91.0201Z" fill="black"/>
</svg>
