<svg width="65" height="71" viewBox="0 0 65 71" fill="none" xmlns="http://www.w3.org/2000/svg">
<path d="M59.8284 57.2447C58.2929 57.9869 54.696 57.1196 54.479 58.5706C54.3538 59.4045 54.2453 60.23 54.1369 61.0639C53.8448 63.3403 53.6195 65.6168 53.4192 67.9016C37.3375 71.6791 22.3992 70.1197 11.3332 67.5431C10.9993 65.7836 10.5487 64.0408 10.1398 62.2897C10.0396 61.8727 9.94786 61.4641 9.85606 61.0639C9.18008 58.2037 7.536 58.1203 4.03092 56.586C0.208716 54.9182 -1.12652 41.4428 2.02805 38.0573C4.5734 35.3305 5.48305 41.6263 5.41629 38.4159C5.3078 33.6628 3.9725 26.2496 5.4413 19.512C6.65138 13.925 10.315 8.81336 13.4696 6.09493C25.6038 -4.36184 52.5011 -1.51834 57.7504 19.1534C58.6851 22.8308 58.2511 32.7122 58.2595 36.5813C58.2678 39.2998 58.6851 35.7058 61.7395 36.573C62.4739 36.7898 63.2834 37.3652 63.684 38.0073C66.3796 42.2684 64.4435 55.0183 59.8284 57.2447Z" fill="black"/>
</svg>
