<svg width="72" height="262" viewBox="0 0 72 262" fill="none" xmlns="http://www.w3.org/2000/svg">
<path d="M70.9458 74.6518C70.9458 74.6601 70.9458 74.6601 70.9458 74.6601C69.8192 76.4863 69.911 77.2785 69.7274 78.1874C66.9317 91.8629 64.595 105.38 64.1861 119.556C63.8773 130.346 61.432 141.237 58.678 151.752C56.4331 160.366 52.6777 168.654 48.939 176.785C45.4005 184.465 42.78 192.478 42.8301 200.667C42.8969 212.866 44.2154 225.058 44.5075 237.257C44.5576 239.417 45.3504 247.422 44.6327 249.723C44.6243 249.749 42.9219 248.915 42.9135 248.89C42.1708 245.888 40.0093 238.625 38.8994 235.773C38.3069 234.255 38.3152 232.321 37.1218 231.036C37.1135 231.028 37.0968 231.028 37.0884 231.036C36.1371 232.321 35.4027 233.521 35.2024 234.931C34.4596 239.992 35.0355 245.121 34.5515 250.224C34.3929 251.933 33.5333 257.378 33.1494 260.105C33.066 260.714 32.4901 261.189 31.8726 261.173C31.5304 261.164 31.1799 261.156 30.8377 261.139C30.0032 261.098 29.2855 260.364 29.2438 259.53C28.9684 253.759 28.6846 244.487 28.451 239.05C28.4176 238.366 28.8599 237.566 28.6345 237.007C28.4593 236.573 28.2507 236.148 28.0337 235.723C27.4662 234.614 26.5649 234.605 25.9974 235.714C25.9306 235.856 25.8722 235.99 25.8388 236.14C24.562 241.66 24.5787 247.289 23.5355 252.859C23.2434 254.418 22.751 255.936 22.3505 257.47C22.1251 257.454 22.0417 259.263 21.4074 260.697C20.9985 261.623 19.8385 262.006 18.8871 261.656C18.3113 261.448 17.5935 261.398 17.6269 260.714C17.9107 254.902 19.2793 242.427 19.3044 236.615C19.3127 235.623 19.5714 234.622 18.9789 233.621C18.4114 232.671 16.9927 232.788 16.5587 233.805C16.3835 234.205 16.2165 234.647 15.9495 235.156C13.8297 239.2 12.1106 243.461 10.1912 247.605C9.81563 248.414 8.34684 251.65 7.42884 253.551C7.08668 254.26 6.24377 254.56 5.52606 254.235C4.7249 253.868 4.22418 253.051 4.2826 252.167C4.39944 250.299 4.49123 247.664 4.80001 246.546C6.50248 240.284 9.99089 233.229 11.7685 226.984C11.9187 226.45 12.1857 225.9 12.1523 225.374C12.0188 223.223 11.7851 221.088 11.5848 218.945C11.5848 218.929 11.5682 218.912 11.5515 218.92C10.283 219.462 5.44263 229.577 3.36462 231.487C2.32979 232.437 0.694082 232.437 0.852645 231.045C1.46186 225.424 6.96149 209.447 10.2913 205.853C11.4179 204.636 12.6864 203.452 14.1218 202.66C22.4005 198.065 22.968 189.826 24.9792 181.688C28.2506 168.412 25.747 154.879 26.882 141.528C27.7249 131.555 30.6458 121.474 33.7503 111.951C38.0899 98.6673 38.2235 84.9668 39.9343 71.408C40.4016 67.7556 41.3947 63.9949 42.9803 60.6927C45.1752 56.1314 44.1487 51.6285 43.6313 46.8921C42.6465 37.7529 43.214 28.6803 46.5104 19.7996C50.1907 9.91816 57.8685 3.38893 67.9999 1.10412C69.26 0.820604 70.4952 0.512075 71.7303 0.170187C71.747 0.161848 71.7637 0.178525 71.7553 0.195202C67.3155 28.3468 69.5688 60.5676 70.9458 74.6518Z" fill="black"/>
</svg>
