<svg width="57" height="309" viewBox="0 0 57 309" fill="none" xmlns="http://www.w3.org/2000/svg">
<path d="M55.4071 20.5675C55.4154 20.9178 55.4154 21.268 55.4071 21.6099C55.1066 31.583 56.6422 41.5645 56.1665 51.5293C55.4571 66.7308 52.845 81.9156 51.9855 97.1005C51.418 107.04 50.9673 116.98 50.1912 126.895C49.6487 133.774 48.0965 140.612 48.0214 147.475C47.9546 152.795 50.9673 159.791 50.9757 165.119C51.0007 176.443 51.1259 186.1 50.6502 197.415C50.5083 200.734 49.2732 204.045 49.0479 207.364C48.0881 221.448 46.8446 235.515 46.3606 249.616C46.1603 255.336 47.0283 261.09 47.4706 266.86C47.8211 271.547 47.8712 276.292 47.529 280.978C47.0783 287.157 46.7528 298.297 46.2605 304.476C45.9767 308.096 43.4648 307.979 40.0515 308.387C30.4542 309.546 19.4884 305.577 11.5352 300.666C8.34723 298.698 10.9343 293.069 14.0639 290.709C16.6092 288.791 19.3465 287.132 21.8251 285.131C25.5805 282.104 25.9978 278.151 25.4387 273.281C24.5541 265.576 23.4274 256.971 22.5595 249.257C21.9002 243.362 19.8222 238.367 18.971 232.497C17.0515 219.221 15.9833 205.954 14.2141 192.662C13.4213 186.767 12.4448 180.813 12.4866 174.893C12.5617 163.285 13.0207 151.661 13.8052 140.078C14.9401 123.334 13.4213 106.957 7.95502 90.813C3.42345 77.4377 1.86287 63.4953 0.719551 49.3528C-0.599025 33.134 1.33708 16.2481 2.56386 0.154297C14.0889 8.7015 33.7841 19.6669 55.4071 20.5675Z" fill="black"/>
</svg>
