<svg width="112" height="68" viewBox="0 0 112 68" fill="none" xmlns="http://www.w3.org/2000/svg">
<path d="M111.817 45.5865C93.6493 60.7463 76.0822 66.7668 60.1841 67.5507C60.1591 66.1664 60.0673 66.4583 59.7585 65.1408C59.5165 64.1151 57.8057 63.4564 56.9795 63.5814C55.7861 63.7565 54.309 64.1902 53.8249 65.3576C53.3409 66.5 53.391 66.2165 53.4077 67.5673C31.7847 66.6668 12.0895 55.7013 0.564453 47.1541C0.723016 45.1695 0.864896 44.0104 0.990078 42.0258C1.1236 39.8994 1.20706 37.773 1.25714 35.6467C1.34894 31.9443 1.34891 28.2419 1.33222 24.5395C1.29049 16.5093 2.73425 8.56246 4.31154 0.724047C19.9509 5.31035 55.1435 11.3893 108.22 -0.00976562C108.638 2.3084 109.038 4.62658 109.23 6.95308C109.965 15.7504 110.532 24.5645 111.075 33.3869C111.258 36.4639 111.442 39.5409 111.634 42.6179C111.692 43.6102 111.759 44.5941 111.817 45.5865Z" fill="black"/>
</svg>
