<svg width="57" height="311" viewBox="0 0 57 311" fill="none" xmlns="http://www.w3.org/2000/svg">
<path d="M44.2464 108.789C41.4924 118.696 42.619 128.26 43.6038 138.008C44.0878 142.786 43.729 147.665 43.5537 152.493C43.0029 167.144 42.9195 181.845 41.5592 196.429C40.4743 208.095 37.6452 219.586 35.8676 231.202C34.3571 241.042 33.1052 250.931 32.012 260.83C31.4195 266.191 31.5697 271.637 31.0857 277.015C30.5683 282.71 33.0969 286.58 37.6952 289.456C38.9888 290.257 40.4743 290.849 41.5592 291.866C43.0697 293.276 46.8835 294.918 47.017 296.603C47.1005 297.662 46.4996 300.363 45.1477 302.448C45.0058 302.673 43.3785 301.823 41.6677 303.465C34.7326 310.128 19.6441 310.929 15.0291 310.445C10.3723 309.953 10.0385 305.65 9.70471 301.114C9.23736 294.768 9.18727 288.447 8.90353 282.102C8.66985 276.74 8.3277 271.22 9.27908 266C11.3654 254.492 10.5058 243.076 9.5795 231.594C8.4946 218.202 7.20939 204.735 5.54865 191.418C3.77942 177.259 8.66149 163.55 9.30409 149.632C9.63791 142.545 6.24134 135.373 5.61543 128.219C4.95614 120.772 5.16479 113.309 4.84766 105.846C4.38032 94.7553 3.64592 83.6397 2.96159 72.5742C2.41914 63.8769 0.816814 55.2547 0.140835 46.5574C-0.401617 39.5528 1.41768 32.4816 1.23408 25.4437C1.20905 24.4848 1.20905 23.5175 1.18401 22.5502C17.082 21.7663 34.6491 15.7458 52.8171 0.585938C53.3679 5.97276 55.012 13.9613 55.9717 23.6842C57.1568 35.642 56.9147 41.6459 56.9314 42.7799C57.0983 52.3861 57.1567 55.7467 50.881 81.1715C48.6277 90.3024 46.7584 99.7419 44.2464 108.789Z" fill="black"/>
</svg>
