<svg width="70" height="262" viewBox="0 0 70 262" fill="none" xmlns="http://www.w3.org/2000/svg">
<path d="M67.817 254.706C67.7335 254.739 66.8823 255.998 66.7989 256.031C66.3983 256.198 64.2034 255.64 64.0031 255.256C63.1769 253.73 61.4244 248.06 60.8235 246.459C59.3047 242.448 58.1613 238.287 56.4923 234.351C55.9665 233.133 55.5827 232.299 54.7648 232.558C53.3878 232.983 53.2376 233.884 53.1458 235.185C52.9038 238.587 52.6617 242.047 52.9121 245.491C53.1875 249.369 53.4462 253.255 53.7133 257.132C53.7467 257.591 53.2292 261.41 52.7702 261.468H50.5921C50.1414 261.527 49.2317 257.849 49.1399 257.407C48.222 252.638 48.0968 247.885 47.2789 243.098C46.8867 240.78 47.0286 238.362 46.5696 236.069C46.4027 235.251 46.6697 234.518 46.1189 233.775C45.7183 233.25 44.8755 233.333 44.6335 233.95C44.4248 234.476 44.3747 235.026 44.1327 235.71C43.5485 237.328 43.7155 239.254 43.7071 241.047C43.657 247.184 42.9978 253.321 42.8642 259.459C42.8559 259.909 41.6708 260.276 41.2202 260.301C40.7695 260.326 38.7082 260.001 38.6498 259.559C37.9154 254.23 38.0906 248.927 37.4647 243.598C37.1392 240.713 38.0405 237.753 37.4146 234.943C37.1726 233.85 36.1044 234.067 35.1948 233.534C34.8109 233.308 34.3185 233.4 34.0515 233.759C33.534 234.459 33.4923 234.859 33.1084 235.985C32.0736 239.095 31.4977 245.274 30.7884 248.885C30.7049 249.302 30.3377 249.594 29.9205 249.586C29.3029 249.569 28.4433 249.552 27.7924 249.536C27.3084 249.519 26.9328 249.119 26.9579 248.635C27.083 245.958 27.6422 240.705 27.7924 238.77C28.1596 233.85 28.8105 228.939 29.0859 224.011C29.4197 218.057 29.3363 212.086 29.7035 206.141C30.3377 195.659 26.2318 185.794 22.3011 176.23C16.935 163.171 11.6523 150.321 9.52426 136.245C8.34756 128.474 8.89838 120.485 9.02356 112.605C9.2155 100.489 5.87732 89.0482 3.32362 77.4407C3.23182 77.0405 3.00648 76.6652 2.73108 76.3067C2.59755 76.1315 2.52246 75.9231 2.53915 75.6979C3.89111 60.3463 5.55184 30.6104 1.38748 4.41005C1.16215 2.97579 0.911784 1.54987 0.653076 0.140625C0.903439 0.190657 1.15382 0.240688 1.40418 0.282382C19.6222 3.51781 27.6171 17.9939 29.1944 32.8869C29.9455 39.9998 28.1512 47.2879 28.026 54.4925C28.001 56.1436 28.1512 57.8113 28.3432 59.4541C29.5366 69.6107 32.1487 79.8006 33.726 89.8905C34.8526 97.0951 35.4034 104.367 37.7401 111.238C41.7793 123.154 44.6752 135.12 44.5917 147.795C44.5333 156.8 44.5083 165.873 45.468 174.804C46.194 181.608 47.3123 188.354 49.4404 194.892C50.1999 197.218 52.8704 199.153 55.0402 200.746C60.7735 204.94 66.7154 209.468 67.5499 217.09C67.7002 218.507 69.4027 224.394 69.4027 225.837C69.3442 227.054 70.0536 229.664 69.7782 231.799C69.3526 235.118 68.2593 234.442 68.1258 234.467C67.7586 234.518 66.9992 233.642 65.4386 228.055C65.0463 226.646 62.8265 220.05 61.5246 219.366C61.0405 219.116 60.448 219.374 60.2978 219.9C59.8304 221.517 59.9807 223.185 60.3312 224.611C61.9502 231.165 64.095 237.595 65.9727 244.09C66.5652 246.175 67.3914 248.802 67.8671 250.911C67.9756 251.303 68.2009 254.547 67.817 254.706Z" fill="black"/>
</svg>
