<svg width="512" height="512" viewBox="0 0 512 512" fill="none" xmlns="http://www.w3.org/2000/svg">
<g clip-path="url(#clip0_1007_4394)">
<mask id="mask0_1007_4394" style="mask-type:luminance" maskUnits="userSpaceOnUse" x="0" y="0" width="512" height="512">
<path d="M0 3.05176e-05H512V512H0V3.05176e-05Z" fill="white"/>
</mask>
<g mask="url(#mask0_1007_4394)">
<path d="M343.334 126.238L304.91 164.664C287.172 152.589 266.866 144.059 245 139.908V127C245 110.431 231.569 97 215 97C198.431 97 185 110.431 185 127V139.908C163.134 144.059 142.827 152.59 125.09 164.664L116.005 155.578C104.289 143.862 85.294 143.862 73.579 155.578C61.863 167.294 61.863 186.289 73.579 198.004L82.664 207.09C70.59 224.827 62.06 245.133 57.908 267H45C28.431 267 15 280.431 15 297C15 313.568 28.431 327 45 327H57.908C62.06 348.866 70.59 369.173 82.664 386.91L73.578 395.995C61.863 407.711 61.863 426.705 73.579 438.421C85.294 450.135 104.289 450.136 116.005 438.421L125.09 429.336C142.827 441.411 163.133 449.94 185 454.092V467C185 483.568 198.431 497 215 497C231.569 497 245 483.568 245 467V454.092C266.866 449.94 287.173 441.411 304.91 429.336L313.995 438.422C325.711 450.136 344.705 450.136 356.421 438.422C368.137 426.706 368.137 407.711 356.421 395.995L347.336 386.91C359.411 369.173 367.94 348.867 372.092 327H385C401.568 327 415 313.568 415 297C415 280.431 401.568 267 385 267H372.092C367.94 245.134 359.411 224.828 347.336 207.09L385.761 168.665C395.359 172.74 405.915 175 417 175C461.183 175 497 139.182 497 95C497 50.817 461.183 15 417 15C372.817 15 337 50.817 337 95C337 106.085 339.259 116.639 343.334 126.238Z" stroke="black" stroke-width="40" stroke-miterlimit="10" stroke-linecap="round" stroke-linejoin="round"/>
<path d="M442 69.9995C442 78.2835 435.284 84.9995 427 84.9995C418.716 84.9995 412 78.2835 412 69.9995C412 61.7155 418.716 54.9995 427 54.9995C435.284 54.9995 442 61.7155 442 69.9995Z" fill="black"/>
<path d="M422 120C422 128.284 415.284 135 407 135C398.716 135 392 128.284 392 120C392 111.716 398.716 105 407 105C415.284 105 422 111.716 422 120Z" fill="black"/>
<path d="M295 247C295 269.092 277.092 287 255 287C232.909 287 215 269.092 215 247C215 224.908 232.909 207 255 207C277.092 207 295 224.908 295 247Z" stroke="black" stroke-width="40" stroke-miterlimit="10" stroke-linecap="round" stroke-linejoin="round"/>
<path d="M215 357C215 373.568 201.568 387 185 387C168.432 387 155 373.568 155 357C155 340.432 168.432 327 185 327C201.568 327 215 340.432 215 357Z" stroke="black" stroke-width="40" stroke-miterlimit="10" stroke-linecap="round" stroke-linejoin="round"/>
<path d="M305 362C305 370.284 298.284 377 290 377C281.716 377 275 370.284 275 362C275 353.716 281.716 347 290 347C298.284 347 305 353.716 305 362Z" fill="black"/>
<path d="M145 262C145 270.284 138.284 277 130 277C121.716 277 115 270.284 115 262C115 253.716 121.716 247 130 247C138.284 247 145 253.716 145 262Z" fill="black"/>
</g>
</g>
<defs>
<clipPath id="clip0_1007_4394">
<rect width="512" height="512" fill="white"/>
</clipPath>
</defs>
</svg>
