<svg width="512" height="512" viewBox="0 0 512 512" fill="none" xmlns="http://www.w3.org/2000/svg">
<path d="M315.793 19.9321H255.997V57.3041H297.106V127.688C297.106 189.508 246.809 239.805 184.989 239.805C123.169 239.805 72.873 189.509 72.873 127.689V57.3041H112.737V19.9321H54.187C43.866 19.9321 35.501 28.2971 35.501 38.6181V127.689C35.501 210.12 102.559 277.178 184.99 277.178C267.421 277.178 334.479 210.12 334.479 127.689V38.6181C334.479 28.2971 326.114 19.9321 315.793 19.9321Z" fill="black"/>
<path d="M388.668 292.749V381.197C388.668 432.715 346.755 474.628 295.237 474.628C243.719 474.628 201.806 432.715 201.806 381.197V259.114H164.434V381.197C164.434 453.319 223.108 512 295.237 512C367.359 512 426.04 453.319 426.04 381.197V292.749H388.668Z" fill="black"/>
<path d="M407.361 171.912C369.229 171.912 338.216 202.925 338.216 241.051C338.216 279.171 369.229 310.19 407.355 310.19C445.481 310.19 476.494 279.171 476.5 241.051C476.499 202.925 445.481 171.912 407.361 171.912ZM407.355 272.818C389.834 272.818 375.582 258.567 375.582 241.052C375.582 223.537 389.833 209.286 407.355 209.286C424.87 209.286 439.121 223.537 439.121 241.052C439.121 258.567 424.87 272.818 407.355 272.818Z" fill="black"/>
<path d="M112.114 0C101.793 0 93.428 8.365 93.428 18.686V58.55C93.428 68.871 101.793 77.236 112.114 77.236C122.435 77.236 130.8 68.871 130.8 58.55V18.686C130.8 8.365 122.435 0 112.114 0Z" fill="black"/>
<path d="M256.62 0C246.299 0 237.934 8.365 237.934 18.686V58.55C237.934 68.871 246.299 77.236 256.62 77.236C266.941 77.236 275.306 68.871 275.306 58.55V18.686C275.306 8.365 266.941 0 256.62 0Z" fill="black"/>
</svg>
