<svg width="99" height="178" viewBox="0 0 99 178" fill="none" xmlns="http://www.w3.org/2000/svg">
<path d="M98.3676 61.8113C98.2005 61.517 98.0255 61.1987 97.8426 60.8567C97.7789 61.0715 97.7153 61.2704 97.6516 61.4454C97.2618 62.6069 96.9913 63.124 97.0151 63.6252C97.6357 79.5924 92.3134 94.7003 90.3165 110.286C89.3459 117.899 87.2217 125.537 87.1262 133.174C87.0546 138.314 87.6911 142.793 89.1231 147.813C90.7143 153.374 94.1829 159.659 95.9729 165.164C96.4025 166.509 96.8402 167.853 97.2538 169.206C54.8418 183.001 19.0011 176.414 1.04503 171.099C1.22006 170.399 1.38725 169.699 1.56227 168.999C1.76912 168.156 1.99194 167.312 2.22266 166.469C3.5274 161.695 5.19805 156.978 7.33814 152.546C11.8093 143.262 12.3742 133.755 10.5682 123.882C7.91896 109.45 5.10248 95.0424 2.66007 80.5789C2.03157 76.8477 2.53283 72.9334 2.51692 69.1067C2.50897 66.6882 2.51692 64.2617 2.51692 61.8432C2.25438 61.7954 2.10329 61.7636 1.98395 61.7397C1.76119 61.692 1.65775 61.6681 1.17245 61.5727C1.00538 61.9705 0.8382 62.3682 0.663174 62.766C0.360856 31.1341 4.2911 14.1088 7.14721 5.96215C7.84732 5.8269 8.5553 5.69166 9.2554 5.55641C13.6629 4.68924 18.0464 3.73455 22.3346 2.46164C23.5598 2.09567 24.6737 1.66605 25.6921 1.1728C34.6184 3.09013 52.4868 5.5564 72.4876 0.6875C73.1558 0.973906 73.9037 1.2285 74.7232 1.46717C80.5229 3.16174 86.3863 4.61763 92.2736 6.0258C92.4565 6.06558 92.6315 6.10535 92.8065 6.14513C94.3897 15.1112 97.3254 34.73 98.3676 61.8113Z" fill="black"/>
</svg>
