<svg width="117" height="67" viewBox="0 0 117 67" fill="none" xmlns="http://www.w3.org/2000/svg">
<path d="M116.494 45.4056C97.6466 58.3098 80.1598 64.3163 64.5507 66.0984C64.4473 65.0881 64.7258 63.8788 64.2485 63.1389C62.538 60.4896 60.557 58.0234 58.6794 55.4935C56.7144 58.1984 53.182 60.8397 53.0626 63.6242C53.0149 64.6425 52.9592 65.6609 52.8638 66.6792C29.3068 66.3212 11.0087 56.7584 0.180908 49.2005C0.554828 46.0182 1.06392 42.8359 1.69242 39.6616C2.03452 37.9272 2.41654 36.1929 2.83819 34.4585C5.44767 23.7183 7.46828 12.8349 10.0459 2.09464C28.002 7.40906 63.8428 13.9964 106.255 0.201172C107.225 3.28004 108.14 6.36685 108.936 9.49345C111.155 18.1731 112.826 26.9961 114.568 35.803C115.086 38.4284 115.611 41.0538 116.152 43.6712C116.271 44.252 116.382 44.8248 116.494 45.4056Z" fill="black"/>
</svg>
