<svg width="61" height="71" viewBox="0 0 61 71" fill="none" xmlns="http://www.w3.org/2000/svg">
<path d="M54.8319 56.6152C53.4874 58.4132 52.4613 57.1084 51.5941 59.0337C50.6712 61.0863 50.337 63.1946 49.8596 65.3108C49.6528 66.2416 49.4221 67.1645 49.1118 68.0953C49.08 68.1828 49.0562 68.2703 49.0244 68.3578C32.6515 71.3333 20.5508 70.9912 12.3484 69.8058C12.3166 69.7024 12.2689 69.591 12.2212 69.4796C11.712 68.2862 11.3062 67.1088 10.9243 65.9393C10.081 63.3616 9.35703 60.8079 7.96478 58.2461C6.78733 56.0662 4.06643 53.8705 3.15152 51.6429C1.82291 48.3969 1.23431 45.5886 0.68536 42.096C0.494423 40.8867 1.48887 37.8795 2.06169 37.6169C2.65837 37.3385 3.64484 38.2454 5.00527 38.4602C6.1509 31.2444 5.92821 22.6363 7.67052 15.9296C9.96177 7.11467 15.8568 1.61727 25.2207 0.431866C35.5234 -0.880829 44.4259 0.392088 50.2972 9.99465C52.9385 14.3146 54.7683 19.8279 55.6753 24.9514C56.3118 28.5474 55.1502 34.3392 55.0468 38.6591C55.0308 39.4706 56.0016 39.9161 56.6062 39.3672C57.0915 38.9137 57.9746 38.0227 58.7383 37.4578C59.1361 37.1555 59.7327 37.3544 59.86 37.8397C61.483 43.6871 58.0301 52.3032 54.8319 56.6152Z" fill="black"/>
</svg>
