<svg width="92" height="231" viewBox="0 0 92 231" fill="none" xmlns="http://www.w3.org/2000/svg">
<path d="M85.6634 56.6339C85.6634 56.7215 85.6477 56.801 85.6158 56.8806C83.9292 60.8266 82.1551 64.7488 80.6435 68.7585C76.7691 79.0293 72.2182 89.324 68.7336 99.7221C65.5513 109.229 63.3874 118.824 60.7779 128.562C57.2217 141.832 51.048 154.577 44.7073 166.868C42.3286 171.467 39.8145 176.161 38.5337 180.942C36.7277 187.673 35.7969 194.562 35.1286 201.579C34.7069 206.058 32.5749 213.394 30.6576 218.437C29.9972 220.18 30.0609 221.644 29.2733 222.63C29.0346 222.925 28.5971 222.948 28.3425 222.67C28.0004 222.304 27.6503 221.93 27.2764 221.524C26.9741 221.198 26.4092 215.725 26.258 216.146C25.3431 218.78 26.0035 227.046 22.1768 228.987C21.7631 229.202 20.4742 228.064 20.5061 227.595C20.8402 222.224 21.946 213.274 22.2483 208.373C22.2881 207.673 21.3016 207.467 21.0629 208.127C19.1297 213.592 18.366 225.311 14.9769 230.315C14.6984 230.721 14.0778 230.657 13.8948 230.204C11.4603 224.221 14.937 214.205 15.5337 208.445C15.5655 208.127 15.3349 207.84 15.0167 207.785C14.6905 207.737 14.3881 207.944 14.3244 208.262C13.9266 210.267 13.1152 214.404 12.6061 215.812C11.9617 217.602 11.6196 221.381 11.0388 223.33C10.8717 223.887 8.50077 223.919 8.29393 223.378C7.47448 221.206 7.83262 216.87 8.02355 215.207C8.90664 207.514 11.0944 199.885 12.2957 192.231C12.423 191.428 12.5504 190.64 12.805 189.105C12.8845 188.611 12.3673 188.23 11.9218 188.46C10.259 189.312 9.25671 189.829 8.23838 190.346C7.07684 190.942 5.95494 192.589 4.71385 192.828C3.98192 192.971 2.30336 193.13 1.0384 193.114C0.712213 193.114 0.417781 192.693 0.171153 192.43C0.0120381 192.263 -0.0435898 192.024 0.0359675 191.802C0.489444 190.608 1.73044 188.667 2.31916 188.301C7.30741 185.183 12.1684 181.483 17.6339 179.614C22.2642 178.038 25.8524 175.707 26.9343 171.308C28.796 163.742 30.2121 156.184 31.135 148.483C32.8693 134.003 37.929 120.407 43.3071 106.914C48.4067 94.1611 51.9551 81.0501 55.7341 67.8356C58.8766 56.809 60.7144 45.4005 63.1489 34.167C64.2468 29.131 65.1933 24.0473 66.5697 19.0829C69.2189 9.46445 75.2255 3.25103 85.2736 1.2621C87.2148 0.880228 89.164 0.514262 91.1132 0.140343C91.5667 0.05283 91.9564 0.482448 91.8052 0.920013C88.9969 9.42468 85.385 26.2988 85.6634 56.6339Z" fill="black"/>
</svg>
