<svg width="54" height="294" viewBox="0 0 54 294" fill="none" xmlns="http://www.w3.org/2000/svg">
<path d="M1.18158 0.203125C12.0093 7.76106 30.3075 17.3238 53.8644 17.6819C53.037 28.3425 50.3879 38.6134 48.1841 49.0115C47.118 54.0395 46.7679 59.2346 46.2507 64.366C45.2165 74.7562 44.3893 85.1782 43.2516 95.5604C42.9891 97.979 41.6842 100.262 41.1114 102.673C40.3556 105.855 39.5679 109.077 39.3213 112.323C39.1224 114.925 39.91 117.59 39.9021 120.223C39.8862 126.397 39.6873 132.563 39.4963 138.728C39.3293 144.138 38.1758 149.691 39.0271 154.926C41.6843 171.315 39.7907 187.25 36.7118 203.384C33.983 217.641 31.1826 232.988 29.3687 247.419C29.1698 248.971 29.1698 249.862 29.5596 251.365C32.4396 262.408 30.387 273.045 29.1778 283.825C28.8277 286.935 28.3424 291.892 24.4202 292.886C20.1639 293.968 15.0483 293.682 12.232 290.277C8.49281 285.75 6.31311 280.587 3.05126 275.67C1.14188 272.79 2.31931 270.467 5.22316 269.886C12.9561 268.351 13.696 261.135 13.147 255.081C11.8821 241.126 10.3307 227.196 8.74749 213.273C6.07436 189.772 4.96066 166.247 9.04195 142.817C11.7867 127.073 11.2775 111.655 8.4373 95.9025C5.62097 80.3173 4.76158 64.374 3.09088 48.5819C2.36691 41.74 1.81812 34.8742 1.07029 28.0323C0.0599077 18.6843 0.0916451 9.41585 1.18158 0.203125Z" fill="black"/>
</svg>
