<svg width="90" height="231" viewBox="0 0 90 231" fill="none" xmlns="http://www.w3.org/2000/svg">
<path d="M89.9296 191.435C90.1285 191.865 89.8899 192.223 89.4126 192.231C87.8214 192.263 85.5937 192.541 84.281 192.088C82.8648 191.602 81.5601 190.377 80.0883 189.454C79.3563 188.993 78.4176 189.621 78.5688 190.473C80.3588 200.147 82.4909 214.372 81.6874 223.998C80.4542 224.332 80.7249 223.871 80.0486 223.918C79.6509 223.942 79.2688 222.956 79.0858 222.598C78.6085 221.659 77.7812 220.012 77.7732 219.996C77.1765 219.169 75.0683 206.933 75.1796 207.943C75.291 209.009 76.9459 221.93 76.8743 222.892C76.8027 223.934 77.272 228.931 76.9299 229.957C76.6753 230.697 74.9092 230.872 74.4159 230.259C73.6283 229.289 72.8645 226.727 72.602 225.629C71.3848 220.649 70.7404 214.364 69.8414 209.638C69.73 209.065 69.3482 208.54 68.6958 208.047C67.9798 214.006 69.8493 221.595 69.0219 227.896C68.9264 228.644 68.0513 229.034 67.4547 228.588C64.885 226.695 62.6971 209.606 62.2277 207.108C62.0527 206.177 60.8037 205.986 60.3662 206.822C60.3105 206.925 62.6413 221.357 62.5777 221.468C62.2197 222.144 60.4695 221.389 60.0558 220.744C59.3716 219.678 59.6024 218.007 59.1569 217.069C55.0199 208.27 54.3594 198.699 53.4525 189.271C52.6171 180.6 49.4748 172.851 45.4492 165.364C36.1091 147.989 29.6172 129.659 25.4563 110.358C23.6822 102.148 20.2135 94.2958 17.3256 86.348C13.9842 77.1433 10.4598 68.0181 6.9672 58.8769C6.64101 58.0098 6.14786 57.1903 5.47957 56.0129C5.40002 55.8697 5.35215 55.7106 5.3442 55.5435C4.34973 29.9897 1.66872 11.1028 0.0457465 1.59571C-0.0735895 0.895605 0.562885 0.306879 1.25503 0.473949C3.57811 1.02289 5.89323 1.57184 8.2163 2.12079C15.4799 3.83923 20.4601 8.1751 23.2287 15.0011C24.3584 17.8095 25.1858 20.777 25.8382 23.7365C27.3657 30.7137 28.2647 37.6829 29.2671 44.7476C31.081 57.5483 34.9316 69.7604 39.2357 81.861C43.6193 94.1924 47.9075 106.571 52.6253 118.784C57.4623 131.322 58.7829 144.64 61.273 157.607C62.363 163.28 62.6255 168.857 64.6702 174.267C65.3464 176.041 67.5341 177.489 69.348 178.539C74.6863 181.618 81.8466 184.299 87.1371 187.441C87.8691 187.879 89.2852 190.043 89.9296 191.435Z" fill="black"/>
</svg>
