<svg width="54" height="298" viewBox="0 0 54 298" fill="none" xmlns="http://www.w3.org/2000/svg">
<path d="M48.0073 93.534C41.603 110.106 41.4199 126.869 44.5386 144.252C49.7575 173.354 47.888 202.464 43.2658 231.574C41.5394 242.465 41.1575 256.085 40.6881 267.168C40.5608 270.278 45.358 272.172 48.3175 273.405C52.9716 275.354 51.8737 277.94 48.8744 281.997C47.0605 284.456 45.3899 287.821 43.8147 290.438C40.9029 295.291 34.2518 298.641 29.0488 296.493C27.1951 295.729 25.0869 292.57 24.7766 290.661C23.0025 279.778 20.9259 268.202 22.6682 256.937C24.7367 243.587 21.4352 230.587 19.3747 217.532C17.6164 206.426 15.4683 195.367 14.076 184.221C13.4475 179.169 14.3863 173.935 14.3147 168.795C14.1795 158.381 13.7579 147.983 13.6306 137.577C13.5909 134.275 13.7659 130.982 14.2353 127.712C15.4605 119.151 14.641 111.14 11.7689 102.81C9.32652 95.7139 8.71386 87.7741 8.51497 80.1764C8.17287 67.129 6.5897 54.36 3.55856 41.6706C1.97537 35.0037 1.51393 28.0743 0.567197 21.2562C0.559241 21.2085 0.55127 21.1528 0.55127 21.0971C16.1604 19.315 33.6472 13.3085 52.4943 0.404297C55.2868 15.6713 52.9558 30.8906 51.7624 46.1338C50.6645 60.0086 49.1131 72.8412 48.1585 86.4853C48.0152 88.5935 48.7472 91.6167 48.0073 93.534Z" fill="black"/>
</svg>
