<svg width="109" height="134" viewBox="0 0 109 134" fill="none" xmlns="http://www.w3.org/2000/svg">
<path d="M108.422 107.531C56.68 154.158 17.7378 127.932 0.875549 110.955C1.15999 107.282 1.43555 103.609 1.71111 99.9362C2.23555 92.9461 2.79555 85.9561 3.53333 78.9839C4.04888 74.1815 5.69332 69.4948 6.68888 64.7281C9.06221 53.4515 8.15555 42.3884 4.48444 31.4854C4.13777 30.4627 3.85333 29.4222 3.58666 28.3639C3.33777 27.3767 3.11555 26.3807 2.88444 25.3758C14.5911 13.8502 61.0267 -25.3153 106.707 26.7364C106.396 27.8659 106.076 28.9953 105.764 30.1158C105.382 31.4854 105.009 32.8549 104.653 34.2334C104.138 36.2255 103.658 38.2264 103.258 40.2363C100.893 52.082 101.809 63.7409 106.004 75.1776C107.044 78.0145 107.578 81.3495 107.249 84.3376C106.716 89.1932 106.911 93.9956 107.373 98.7623C107.658 101.697 108.04 104.614 108.422 107.531Z" fill="black"/>
</svg>
