<svg width="102" height="127" viewBox="0 0 102 127" fill="none" xmlns="http://www.w3.org/2000/svg">
<path d="M101.513 101.758C52.8427 145.618 16.2127 120.948 0.351685 104.979C0.61924 101.524 0.878437 98.0687 1.13763 94.6137C1.63094 88.0384 2.15768 81.4631 2.85166 74.9046C3.3366 70.3872 4.8834 65.9786 5.81985 61.4947C8.05226 50.8872 7.19943 40.4805 3.74629 30.2244C3.42021 29.2624 3.15266 28.2836 2.90183 27.2881C2.66771 26.3595 2.45869 25.4226 2.2413 24.4773C13.2529 13.6356 56.9313 -23.2061 99.8991 25.7572C99.6064 26.8196 99.3054 27.882 99.0128 28.9361C98.6533 30.2244 98.3021 31.5127 97.9677 32.8093C97.4827 34.6832 97.0312 36.5655 96.655 38.4561C94.4309 49.5989 95.2921 60.5661 99.2386 71.3241C100.217 73.9927 100.718 77.1298 100.409 79.9406C99.9074 84.5082 100.091 89.0256 100.526 93.5095C100.794 96.2701 101.153 99.014 101.513 101.758Z" fill="black"/>
</svg>
