<svg width="112" height="92" viewBox="0 0 112 92" fill="none" xmlns="http://www.w3.org/2000/svg">
<path d="M108.68 86.3198H108.412C107.927 88.1351 107.417 89.9504 106.899 91.7574C63.9313 42.7941 20.2529 79.6357 9.2413 90.4774C8.97375 89.2979 8.69783 88.1184 8.35502 86.9556C8.04566 85.9015 7.41858 84.9395 6.86674 83.9691C6.74969 83.7683 6.64099 83.5675 6.5323 83.3668C6.15605 83.4253 5.7798 83.4923 5.39519 83.5592C5.22796 84.1448 5.06074 84.7387 4.90188 85.3243C1.90024 67.1962 -3.24184 27.778 5.11927 10.2271C6.15605 10.0933 7.22627 10.0096 8.32158 9.97617C8.43863 9.97617 8.55569 9.9678 8.67275 9.95943C17.5522 9.56626 24.2913 5.37514 30.8213 0.498047C39.8597 6.28698 57.9281 14.8951 81.8826 0.874505C87.8357 5.55919 95.6868 10.4697 103.128 12.4189C104.19 12.7033 105.277 12.9459 106.389 13.13C106.498 13.3726 106.606 12.787 106.707 13.0379C113.546 29.6518 111.347 63.1892 108.68 86.3198Z" fill="black"/>
</svg>
