<svg width="119" height="98" viewBox="0 0 119 98" fill="none" xmlns="http://www.w3.org/2000/svg">
<path d="M115.6 91.9558H115.316C114.8 93.8857 114.258 95.8155 113.707 97.7364C68.0267 45.6846 21.5911 84.8502 9.88444 96.3757C9.6 95.1218 9.30666 93.8679 8.94221 92.6317C8.61332 91.5112 7.94666 90.4885 7.35999 89.4568C7.23555 89.2434 7.11999 89.03 7.00444 88.8165C6.60444 88.8788 6.20443 88.9499 5.79555 89.0211C5.61777 89.6436 5.43999 90.275 5.2711 90.8975C2.07999 71.626 -3.38667 29.7214 5.50222 11.0635C6.60444 10.9212 7.74221 10.8322 8.90666 10.7967C9.0311 10.7967 9.15555 10.7878 9.28 10.7789C18.72 10.3609 25.8844 5.90543 32.8267 0.720703C42.4355 6.87478 61.6444 16.0259 87.1111 1.12091C93.44 6.10109 101.787 11.3214 109.698 13.3935C110.827 13.6959 111.982 13.9538 113.164 14.1494C113.28 14.4073 113.396 13.7848 113.502 14.0516C120.773 31.7134 118.436 67.3662 115.6 91.9558Z" fill="black"/>
</svg>
