<svg width="66" height="78" viewBox="0 0 66 78" fill="none" xmlns="http://www.w3.org/2000/svg">
<path d="M65.6889 55.3447C65.6267 58.644 64.4445 62.2369 60.3022 62.557C59.2889 62.6371 57.7245 61.73 57.5822 62.8683C57.3867 64.4513 56.2933 67.8218 56.0978 69.4137C55.9645 70.4186 55.84 71.4235 55.7245 72.4285C37.0045 80.8058 21.04 76.3592 12.2045 72.6775C12.1156 71.5925 12.0267 70.4986 11.92 69.4137C11.8667 68.7912 11.8045 68.1775 11.7422 67.555C11.3778 63.9355 9.97334 60.9918 5.76001 60.3871C4.83556 60.2537 3.80446 59.5867 3.18224 58.8575C1.0489 56.3585 -0.622205 44.4861 1.42224 41.9338C2.67557 40.3597 6.22223 42.6897 6.59557 40.6887C7.17334 37.6561 7.18224 30.0703 7.39557 26.9665C8.05335 17.353 13.1378 10.3808 20.6133 4.90256C29.9467 -1.94519 40.7467 -0.646788 49.1911 7.36597C57.9289 15.6633 61.0845 25.8282 60.4978 37.2737C60.4 39.0879 59.5022 42.5474 60.8445 43.5879C62.4178 44.8151 64.3822 43.41 65.1111 44.7173C66.4889 47.1807 65.7422 52.4722 65.6889 55.3447Z" fill="black"/>
</svg>
