<svg width="63" height="73" viewBox="0 0 63 73" fill="none" xmlns="http://www.w3.org/2000/svg">
<path d="M62.0699 51.6377C62.0113 54.7413 60.8993 58.121 57.003 58.4221C56.0499 58.4974 54.5783 57.6441 54.4445 58.7149C54.2606 60.204 53.2322 63.3745 53.0482 64.8719C52.9228 65.8172 52.8058 66.7625 52.6971 67.7078C35.0886 75.5881 20.072 71.4054 11.7611 67.9421C11.6774 66.9215 11.5938 65.8925 11.4935 64.8719C11.4433 64.2863 11.3848 63.7091 11.3263 63.1235C10.9835 59.7188 9.66242 56.9498 5.69925 56.3809C4.8297 56.2555 3.85981 55.628 3.27454 54.9421C1.26787 52.5914 -0.304016 41.4234 1.61904 39.0225C2.79796 37.5418 6.13403 39.7336 6.4852 37.8513C7.02867 34.9987 7.03704 27.8629 7.23771 24.9434C7.85643 15.9002 12.639 9.34169 19.6707 4.18854C28.4498 -2.2529 38.6086 -1.03154 46.5516 6.50578C54.7706 14.3108 57.7388 23.8726 57.187 34.639C57.095 36.3455 56.2505 39.5997 57.5131 40.5785C58.993 41.7329 60.8408 40.4112 61.5264 41.6409C62.8224 43.9582 62.12 48.9356 62.0699 51.6377Z" fill="black"/>
</svg>
