<svg width="81" height="264" viewBox="0 0 81 264" fill="none" xmlns="http://www.w3.org/2000/svg">
<path d="M80.2711 79.8979C80.1111 80.467 79.9422 81.0273 79.7733 81.5787C75.1867 96.2524 74.5378 111.549 72.6622 126.649C70.7867 141.75 66.9555 156.077 59.1333 169.452C51.0622 183.254 48.2444 198.64 48.7066 214.665C48.9822 224.11 48.7422 233.563 48.6711 243.017C48.6622 244.164 48.3689 248.539 48.1467 250.638C48.0933 251.127 47.6844 251.501 47.1866 251.501C47.0444 251.501 46.9022 251.501 46.76 251.501C46.2444 251.501 44.0311 251.118 43.9778 250.602C43.5778 246.778 44.7155 239.788 44.1911 236.56C44.0044 235.386 44.8133 234.159 44.3689 233.092C44.2178 232.727 44.0133 232.389 43.7822 232.06C43.1333 231.144 41.8089 231.055 41.0444 231.873C40.6444 232.3 40.3244 232.736 40.2444 233.207C39.2311 239.032 38.5289 244.92 37.6133 250.762C37.2667 252.932 36.7689 255.12 36.0222 257.183C35.8622 257.628 35.3822 258.259 34.8489 258.829L34.84 258.838C34.3333 259.38 33.4355 259.264 33.0889 258.597C32.9911 258.411 32.8933 258.224 32.8133 258.037C32.5378 257.45 32.3333 256.881 32.3511 256.516C32.7155 250.638 33.3111 244.777 33.7378 238.899C33.8355 237.494 33.6578 236.071 33.5778 234.648C33.56 234.39 33.3822 234.177 33.1244 234.123H33.1067C32.3778 233.972 31.6311 234.337 31.3022 235.013C30.7155 236.204 30.1022 237.396 29.6933 238.641C27.5689 245.089 26.4844 251.581 24.3511 258.028C24.0311 258.989 22.9378 261.372 22.1289 263C21.7555 263.747 20.8311 264.031 20.1022 263.613C20.0222 263.569 19.9511 263.524 19.8711 263.48C19.3289 263.177 19.0178 262.582 19.0711 261.959C19.4889 257.37 20.44 251.483 20.9822 247.161C21.5067 242.919 22.6178 238.739 23.1155 234.497C23.2578 233.35 22.1111 232.051 21.56 230.824C20.5733 231.633 19.2133 232.238 18.6711 233.278C15.8178 238.792 13.2933 244.484 10.36 249.953C9.79998 250.994 8.30665 253.493 6.99998 255.307C6.17332 256.445 4.39554 256.499 3.64887 255.307C3.50665 255.076 3.40887 254.809 3.39999 254.498C3.32887 252.434 5.16887 249.286 5.46221 248.459C7.55999 242.501 10.4667 236.818 12.3955 230.815C13.9867 225.835 14.7422 220.561 15.5511 215.368C15.6489 214.754 14.8933 214.007 14.1822 213.269C13.7111 212.78 12.9022 212.789 12.4755 213.322C12.1555 213.714 11.8978 214.123 11.48 214.63C9.90665 216.542 9.58665 218.8 7.8711 220.561C7.47998 220.961 4.97332 224.11 3.47999 225.168C2.28887 226.013 1.18665 224.874 0.848873 224.661C0.0933178 224.172 1.31999 219.476 1.71999 218.605C5.33776 210.681 8.62665 201.29 17.2844 197.546C24.7689 194.3 28.5733 188.91 30.7422 181.253C33.9778 169.799 36.2533 158.238 36.4578 146.348C36.6711 133.453 40.0222 121.34 43.72 109.085C46.9733 98.2889 48.1022 86.8434 50.1467 75.6914C50.3244 74.6687 50.0755 73.5215 50.4578 72.6055C54.68 62.405 53.56 51.8132 53.3644 41.1681C53.2489 34.7917 54.5467 28.1929 56.3067 22.021C59.9067 9.45499 68.0933 1.60231 80.5022 0.0371094C71.6133 18.7217 77.08 60.6263 80.2711 79.8979Z" fill="black"/>
</svg>
