<svg width="55" height="330" viewBox="0 0 55 330" fill="none" xmlns="http://www.w3.org/2000/svg">
<path d="M54.219 33.8967C54.219 33.9804 54.219 34.064 54.2107 34.1477C53.4164 51.3806 53.3996 68.6052 52.6973 85.8465C52.4047 92.9321 51.2592 100.051 51.5853 107.128C52.2207 121.124 51.4432 134.944 48.2743 148.613C47.9064 150.211 47.5803 152.001 47.9064 153.557C51.786 172.153 49.4114 190.725 47.9816 209.313C46.6271 226.797 45.7409 244.231 47.6723 261.832C48.5753 270.072 46.3011 278.655 45.4984 287.087C44.9884 292.491 43.5586 297.879 43.2743 303.291C42.9984 308.587 42.6807 313.397 38.9935 317.471C37.6306 318.977 37.2209 323.067 35.7744 324.431C34.236 325.895 31.644 329.534 30.1223 329.107C25.0304 327.677 18.9184 325.134 14.5623 322.239C7.74798 317.722 8.09915 308.62 12.8148 301.794C16.2094 296.883 19.6709 291.998 22.6726 286.853C28.3749 277.09 27.2795 266.291 26.017 255.842C23.5839 235.832 20.1977 215.939 17.5806 195.945C15.273 178.26 13.9352 160.525 16.4853 142.69C17.9569 132.459 16.1843 122.429 13.5255 112.558C10.3316 100.729 6.76137 89.0003 3.95204 77.0878C0.473817 62.3144 0.482182 47.2983 1.81996 32.2152C2.7564 21.6245 3.58415 11.0254 4.39518 0.417969C13.7011 13.9617 31.318 33.9302 54.219 33.8967Z" fill="black"/>
</svg>
