<svg width="57" height="350" viewBox="0 0 57 350" fill="none" xmlns="http://www.w3.org/2000/svg">
<path d="M56.7644 35.5905C56.7644 35.6794 56.7644 35.7684 56.7556 35.8573C55.9111 54.1773 55.8933 72.4883 55.1467 90.8171C54.8355 98.3497 53.6178 105.918 53.9644 113.441C54.64 128.32 53.8133 143.011 50.4444 157.543C50.0533 159.241 49.7067 161.144 50.0533 162.799C54.1778 182.568 51.6533 202.311 50.1333 222.072C48.6933 240.658 47.7511 259.192 49.8044 277.903C50.7644 286.663 48.3467 295.787 47.4933 304.751C46.9511 310.496 45.4311 316.224 45.1289 321.978C44.8355 327.607 44.4978 332.72 40.5778 337.051C39.1289 338.652 38.6933 343.001 37.1555 344.451C35.52 346.007 32.7644 349.875 31.1467 349.422C25.7333 347.901 19.2355 345.198 14.6044 342.121C7.35999 337.318 7.73332 327.642 12.7467 320.386C16.3555 315.165 20.0356 309.972 23.2267 304.502C29.2889 294.124 28.1244 282.643 26.7822 271.535C24.1956 250.263 20.5955 229.115 17.8133 207.86C15.36 189.06 13.9378 170.207 16.6489 151.246C18.2133 140.37 16.3289 129.707 13.5022 119.213C10.1067 106.638 6.3111 94.1699 3.32443 81.506C-0.373344 65.8006 -0.364451 49.8374 1.05777 33.803C2.05333 22.5442 2.93332 11.2766 3.79554 0C13.6889 14.3981 32.4178 35.6261 56.7644 35.5905Z" fill="black"/>
</svg>
