<svg width="77" height="249" viewBox="0 0 77 249" fill="none" xmlns="http://www.w3.org/2000/svg">
<path d="M75.9019 75.3254C75.7514 75.8608 75.5925 76.3878 75.4337 76.9065C71.1193 90.7096 70.509 105.098 68.7448 119.303C66.9806 133.507 63.377 146.984 56.0192 159.566C48.4273 172.549 45.7768 187.022 46.2116 202.096C46.4708 210.98 46.245 219.873 46.1781 228.766C46.1698 229.845 45.8939 233.961 45.6848 235.935C45.6347 236.395 45.2501 236.746 44.7818 236.746C44.6481 236.746 44.5143 236.746 44.3805 236.746C43.8956 236.746 41.8136 236.387 41.7635 235.901C41.3872 232.304 42.4575 225.729 41.9641 222.692C41.7886 221.588 42.5494 220.433 42.1314 219.43C41.9892 219.087 41.7969 218.769 41.5795 218.459C40.9692 217.598 39.7234 217.514 39.0043 218.284C38.6281 218.685 38.3271 219.095 38.2518 219.538C37.2987 225.018 36.6381 230.556 35.7769 236.052C35.4508 238.093 34.9826 240.151 34.2803 242.092C34.1298 242.51 33.6783 243.104 33.1766 243.639L33.1683 243.648C32.6917 244.158 31.8472 244.049 31.5211 243.422C31.4291 243.246 31.3372 243.071 31.2619 242.895C31.0027 242.343 30.8104 241.807 30.8271 241.464C31.17 235.935 31.7302 230.422 32.1315 224.892C32.2235 223.571 32.0562 222.232 31.981 220.894C31.9643 220.651 31.797 220.45 31.5546 220.4H31.5378C30.8522 220.258 30.1499 220.601 29.8405 221.237C29.2887 222.358 28.7118 223.479 28.3272 224.65C26.3289 230.715 25.3088 236.822 23.3022 242.887C23.0012 243.79 21.9727 246.032 21.2119 247.563C20.8607 248.266 19.9912 248.533 19.3055 248.14C19.2303 248.098 19.1634 248.056 19.0882 248.015C18.5781 247.73 18.2855 247.17 18.3357 246.584C18.7286 242.267 19.6233 236.73 20.1333 232.664C20.6266 228.674 21.6717 224.742 22.14 220.751C22.2737 219.672 21.1952 218.451 20.6768 217.296C19.7487 218.058 18.4694 218.627 17.9594 219.605C15.2755 224.792 12.9009 230.146 10.1418 235.291C9.61501 236.269 8.21035 238.62 6.98126 240.327C6.20368 241.397 4.53146 241.448 3.82913 240.327C3.69535 240.109 3.60338 239.858 3.59501 239.565C3.52813 237.625 5.25888 234.663 5.53479 233.885C7.50801 228.28 10.2421 222.935 12.0565 217.288C13.5531 212.603 14.2638 207.643 15.0247 202.757C15.1166 202.18 14.4059 201.477 13.737 200.783C13.2939 200.323 12.533 200.331 12.1317 200.833C11.8307 201.201 11.5882 201.586 11.1953 202.063C9.71535 203.861 9.41435 205.986 7.80065 207.643C7.43276 208.019 5.07493 210.98 3.67027 211.976C2.54988 212.771 1.5131 211.7 1.19538 211.499C0.484681 211.039 1.63852 206.622 2.01477 205.802C5.41774 198.349 8.51135 189.515 16.6551 185.993C23.6951 182.939 27.2737 177.87 29.3138 170.667C32.3572 159.892 34.4977 149.017 34.69 137.832C34.8906 125.702 38.0428 114.309 41.521 102.781C44.5812 92.6253 45.643 81.8588 47.5661 71.3685C47.7333 70.4065 47.4992 69.3273 47.8587 68.4657C51.8303 58.8704 50.7768 48.9071 50.5928 38.8936C50.4841 32.8955 51.7048 26.6883 53.3603 20.8827C56.7466 9.0622 64.4472 1.67545 76.1193 0.203125C67.7582 17.7791 72.9003 57.1973 75.9019 75.3254Z" fill="black"/>
</svg>
