<svg width="113" height="67" viewBox="0 0 113 67" fill="none" xmlns="http://www.w3.org/2000/svg">
<path d="M112.591 24.8274C93.7111 51.9605 76.0933 63.5127 60.4933 66.0384C60.4756 65.3003 60.4222 64.5621 60.2978 63.8329C60.0578 62.3922 58.0845 61.245 56.9022 59.9644C55.9067 61.2272 54.7156 62.3922 53.9778 63.7884C53.5778 64.5444 53.7645 65.6115 53.7645 66.5898C29.4178 66.6254 10.6889 45.3973 0.795563 30.9993C1.13334 26.6416 1.46223 22.2929 1.79112 17.9352C2.08445 14.0845 2.38668 10.2337 2.6889 6.38298C2.75112 5.5737 2.81334 4.76441 2.87557 3.95513C7.27557 8.39283 13.1956 13.453 20.4489 17.6951C36.8222 27.2463 60.0133 32.5556 88.1467 16.8058C95.2667 12.8216 102.698 7.48572 110.422 0.53125C110.893 4.12409 111.356 7.70805 111.622 11.3187C111.747 13.044 111.871 14.7692 111.996 16.4945C112.2 19.2692 112.404 22.0527 112.591 24.8274Z" fill="black"/>
</svg>
