<svg width="106" height="63" viewBox="0 0 106 63" fill="none" xmlns="http://www.w3.org/2000/svg">
<path d="M105.553 23.6124C87.7939 49.1356 71.2222 60.0023 56.5484 62.3782C56.5317 61.6838 56.4815 60.9895 56.3645 60.3035C56.1387 58.9483 54.2826 57.8692 53.1705 56.6645C52.2341 57.8524 51.1137 58.9483 50.4197 60.2617C50.0435 60.9727 50.2191 61.9766 50.2191 62.8968C27.318 62.9303 9.70112 42.9618 0.395203 29.4181C0.712925 25.319 1.02229 21.2282 1.33165 17.1291C1.60757 13.5069 1.89185 9.8846 2.17612 6.26233C2.23465 5.50107 2.29318 4.7398 2.35171 3.97854C6.49046 8.15293 12.059 12.9129 18.8816 16.9032C34.2828 25.8878 56.0969 30.882 82.5598 16.0667C89.2571 12.3189 96.247 7.29964 103.513 0.757812C103.956 4.13748 104.391 7.50878 104.642 10.9052C104.759 12.5281 104.876 14.151 104.993 15.7739C105.185 18.3839 105.377 21.0024 105.553 23.6124Z" fill="black"/>
</svg>
