<svg width="56" height="35" viewBox="0 0 56 35" fill="none" xmlns="http://www.w3.org/2000/svg">
<path d="M55.1111 26.1221C29.6444 41.0271 10.4355 31.876 0.82666 25.7219C1.79555 25.0015 2.75555 24.2634 3.71555 23.5253C4.56888 22.8672 5.33333 22.1557 5.98222 21.3909C8.20444 18.8119 9.28 15.6459 9.00445 11.9197C8.73778 8.17564 8.50666 4.42272 8.20444 0.678695C17.04 4.36047 33.0044 8.80706 51.7244 0.429688C51.0133 6.2814 50.4178 12.1509 50.2667 18.0204C50.24 18.9542 50.6045 20.884 51.2 21.8978C52.0978 23.4808 54.4089 25.9175 55.7155 26.9669C56.1067 27.2782 54.72 25.8108 55.1111 26.1221Z" fill="black"/>
</svg>
