<svg width="53" height="33" viewBox="0 0 53 33" fill="none" xmlns="http://www.w3.org/2000/svg">
<path d="M51.8827 24.875C27.9281 38.8956 9.85971 30.2875 0.82135 24.4985C1.73271 23.8209 2.63571 23.1266 3.53871 22.4323C4.34138 21.8132 5.06044 21.144 5.6708 20.4245C7.76107 17.9985 8.77278 15.0204 8.51358 11.5153C8.26275 7.99339 8.04535 4.46314 7.76107 0.941264C16.072 4.40459 31.0886 8.58734 48.6971 0.707031C48.0282 6.21154 47.468 11.7328 47.3259 17.254C47.3008 18.1324 47.6436 19.9477 48.2038 20.9014C49.0482 22.3904 51.2221 24.6826 52.4512 25.6697C52.8191 25.9625 51.5148 24.5822 51.8827 24.875Z" fill="black"/>
</svg>
