<svg width="84" height="262" viewBox="0 0 84 262" fill="none" xmlns="http://www.w3.org/2000/svg">
<path d="M83.3022 220.447C82.2534 220.839 78.6978 220.892 77.9956 220.234C76.2267 218.589 75.7911 214.693 74.28 212.772C73.8978 212.283 73.4978 211.803 73.1067 211.332C72.6711 210.807 71.8711 210.771 71.4 211.27C70.8223 211.874 70.2534 212.479 70.0311 213.19C69.6489 214.391 68.7956 215.903 69.1689 217.13C69.7734 219.167 68.5289 220.785 69.64 223.907C71.5689 229.34 75.6489 235.317 77.8711 242.405C78.4845 244.37 80.2711 248.034 80.6978 250.035C80.8667 250.826 80.3067 252.258 79.6578 252.587C79.0267 252.925 76.5289 252.543 76.12 251.947C74.8934 250.168 73.9334 246.398 73.08 244.397C71.1245 239.799 69.3822 235.094 67.3289 230.541C67.0178 229.865 66.2534 229.385 65.4889 228.914C64.9378 228.576 64.2178 228.753 63.8978 229.314C63.3734 230.221 62.8222 231.128 62.9378 231.946C63.9689 239.114 65.3912 246.229 66.4578 253.388C66.6089 254.366 67.2667 259.844 67.0089 260.876C66.8134 261.676 65.8711 261.125 65.2134 260.636C64.2089 259.889 62.3334 255.575 61.9689 254.588C60.2356 249.91 59.08 245.01 57.5689 240.243C57.1956 239.061 56.5378 237.967 55.9422 236.855C55.7022 236.411 55.1956 236.17 54.7067 236.277C54.6978 236.277 54.6978 236.277 54.6889 236.277C54.1911 236.384 53.8356 236.811 53.8 237.309C53.6667 239.105 53.48 240.902 53.4978 242.698C53.5334 246.104 53.9333 249.51 53.7645 252.898C53.72 253.77 53.1867 258.172 52.6267 259.017C52.2178 259.639 51.32 258.821 50.8222 258.261C50.2 257.567 49.6045 254.197 49.4889 253.423C48.6267 247.58 48.0667 241.693 47.4178 235.815C47.3556 235.237 47.6223 234.543 47.4 234.063C47.0978 233.405 46.7245 232.791 46.3334 232.177C45.9334 231.555 45.0711 231.457 44.5467 231.973C43.9067 232.622 43.2845 233.271 43.0978 234.036C42.4578 236.757 42.3867 239.603 41.9511 242.369C41.8623 242.947 41.6223 247.065 41.3378 247.678C41.0267 248.372 40.1022 248.594 39.5422 248.069C37.4178 246.122 37.7645 239.888 37.6489 237.522C37.0889 226.592 36.8134 215.654 36.1645 204.742C35.2756 189.908 30.9467 176.124 24.0578 162.917C16.76 148.928 12.6445 133.837 10.7423 118.122C9.3467 106.552 7.56003 95.0268 5.8178 83.5012C5.61336 82.1406 4.82225 80.8688 4.19114 79.5793C4.00447 79.1969 3.61337 78.9479 3.1867 78.9479C2.99114 78.9479 2.80448 78.9479 2.61781 78.939C5.45337 54.3494 7.79114 18.6966 0.520033 1.03477C0.413366 0.767971 0.297807 1.39049 0.182251 1.13259C0.822251 1.2482 1.48003 1.33714 2.1378 1.41718C17.4445 3.24028 27.5245 15.2727 28.5467 31.4939C28.9645 38.1193 29.2311 44.7981 29.2045 51.4502C29.1956 53.9314 29.3289 56.4571 29.7467 58.8938C31.4356 68.7741 33.0978 78.6633 35.0978 88.4814C36.2978 94.3954 37.6045 100.38 39.72 106.001C44.4667 118.603 47.0623 131.578 47.4267 144.971C47.8 158.746 50.8045 171.926 55.3467 184.839C57.1156 189.864 60.1289 194.346 65.2845 196.293C74.6267 199.824 79.24 206.805 82.68 215.529C83.0267 216.472 83.7378 220.287 83.3022 220.447Z" fill="black"/>
</svg>
