<svg width="54" height="332" viewBox="0 0 54 332" fill="none" xmlns="http://www.w3.org/2000/svg">
<path d="M43.1483 305.26C50.8823 316.704 46.267 325.295 34.8374 330.139C25.6569 334.029 22.9395 330.624 16.1587 322.802C12.4965 318.57 13.55 313.851 13.0483 308.372C12.5299 302.633 11.4095 296.894 9.9965 291.298C7.60523 281.895 6.22564 272.559 7.97312 262.83C10.3895 249.387 8.67545 235.918 7.65539 222.45C6.40122 205.953 5.52332 189.431 4.47818 172.918C9.9129 159.115 3.20728 145.579 3.55845 131.885C3.60862 129.802 3.19892 127.694 3.35778 125.627C5.20558 102.706 1.92804 80.0354 0.255814 57.2896C-0.028464 53.4164 0.247455 49.5097 0.297622 45.6197C0.331066 43.5451 0.598612 41.437 0.548445 39.379C15.2222 37.0032 31.7939 26.1364 49.5529 0.613281C50.8322 18.5908 52.0027 36.5766 53.2234 54.5541C54.5612 74.1461 49.0429 92.5753 43.767 111.071C42.3791 115.965 40.8908 121.127 41.0162 126.121C41.844 159.516 38.9845 192.644 33.6752 225.52C31.309 240.243 28.9511 254.858 28.3073 269.782C27.9562 277.93 29.3859 285.258 33.8758 291.967C36.8775 296.459 40.1216 300.784 43.1483 305.26Z" fill="black"/>
</svg>
