<svg width="57" height="353" viewBox="0 0 57 353" fill="none" xmlns="http://www.w3.org/2000/svg">
<path d="M45.7822 324.691C54.0044 336.857 49.0978 345.99 36.9467 351.139C27.1867 355.275 24.2978 351.655 17.0889 343.34C13.1955 338.84 14.3155 333.824 13.7822 327.999C13.2311 321.899 12.04 315.798 10.5378 309.848C7.99553 299.852 6.52887 289.928 8.38665 279.585C10.9555 265.294 9.13331 250.975 8.04886 236.657C6.71553 219.12 5.78221 201.556 4.6711 184.001C10.4489 169.327 3.31998 154.938 3.69331 140.38C3.74665 138.165 3.31109 135.924 3.47998 133.728C5.44442 109.36 1.95998 85.26 0.182205 61.0794C-0.120017 56.9619 0.173319 52.8087 0.226652 48.6734C0.262208 46.4679 0.546641 44.2268 0.493308 42.0391C16.0933 39.5135 33.7111 27.9612 52.5911 0.828125C53.9511 19.9396 55.1955 39.0599 56.4933 58.1713C57.9155 78.9992 52.0489 98.5909 46.44 118.254C44.9644 123.456 43.3822 128.943 43.5155 134.252C44.3955 169.754 41.3555 204.971 35.7111 239.921C33.1955 255.573 30.6889 271.11 30.0044 286.975C29.6311 295.637 31.1511 303.427 35.9244 310.56C39.1155 315.335 42.5644 319.933 45.7822 324.691Z" fill="black"/>
</svg>
