<svg width="79" height="246" viewBox="0 0 79 246" fill="none" xmlns="http://www.w3.org/2000/svg">
<path d="M78.5905 207.415C77.6039 207.783 74.2594 207.833 73.5989 207.214C71.9351 205.666 71.5254 202.002 70.104 200.195C69.7445 199.735 69.3682 199.284 69.0003 198.84C68.5906 198.347 67.8381 198.313 67.395 198.782C66.8515 199.35 66.3164 199.919 66.1074 200.589C65.7478 201.718 64.9452 203.14 65.2963 204.294C65.8649 206.21 64.6943 207.733 65.7395 210.669C67.5538 215.78 71.3916 221.402 73.4819 228.069C74.0588 229.918 75.7394 233.365 76.1407 235.247C76.2996 235.991 75.7728 237.338 75.1624 237.648C74.5688 237.966 72.2193 237.606 71.8347 237.045C70.6809 235.372 69.7779 231.825 68.9752 229.943C67.1358 225.618 65.497 221.193 63.5656 216.91C63.2729 216.274 62.5539 215.822 61.8348 215.379C61.3164 215.061 60.6392 215.228 60.3382 215.755C59.8449 216.608 59.3265 217.462 59.4352 218.231C60.4051 224.974 61.7429 231.666 62.7462 238.401C62.8884 239.321 63.5071 244.474 63.2646 245.444C63.0807 246.197 62.1944 245.679 61.5756 245.219C60.6308 244.516 58.8666 240.459 58.5238 239.53C56.8934 235.13 55.8065 230.52 54.3851 226.036C54.0339 224.924 53.4152 223.895 52.855 222.849C52.6293 222.431 52.1527 222.205 51.6928 222.305C51.6845 222.305 51.6844 222.305 51.6761 222.305C51.2079 222.406 50.8734 222.807 50.84 223.276C50.7146 224.966 50.539 226.655 50.5557 228.345C50.5891 231.549 50.9654 234.753 50.8065 237.941C50.7647 238.76 50.2631 242.901 49.7363 243.696C49.3517 244.282 48.5072 243.512 48.039 242.985C47.4537 242.332 46.8935 239.162 46.7848 238.434C45.9738 232.938 45.4471 227.4 44.8367 221.87C44.7782 221.327 45.029 220.674 44.82 220.222C44.5357 219.603 44.1845 219.026 43.8166 218.449C43.4404 217.863 42.6294 217.771 42.1361 218.256C41.5341 218.867 40.9488 219.478 40.7732 220.197C40.1712 222.757 40.1043 225.434 39.6946 228.036C39.611 228.58 39.3853 232.453 39.1177 233.03C38.8251 233.682 37.9555 233.892 37.4287 233.398C35.4304 231.566 35.7565 225.702 35.6479 223.477C35.1211 213.195 34.8619 202.906 34.2515 192.641C33.4154 178.688 29.3436 165.721 22.8637 153.298C15.9992 140.139 12.128 125.943 10.3388 111.161C9.02607 100.278 7.34548 89.436 5.7067 78.5943C5.5144 77.3144 4.77026 76.1181 4.17662 74.9052C4.00103 74.5454 3.63315 74.3112 3.23182 74.3112C3.04788 74.3112 2.87229 74.3112 2.69671 74.3028C5.3639 51.1722 7.56288 17.6349 0.723488 1.02097C0.623155 0.770003 0.514456 1.35559 0.405762 1.11299C1.00776 1.22174 1.62648 1.3054 2.2452 1.38069C16.643 3.09562 26.1245 14.4141 27.0861 29.6728C27.479 35.9051 27.7299 42.1876 27.7048 48.445C27.6964 50.779 27.8218 53.1548 28.2148 55.447C29.8034 64.741 31.3669 74.0435 33.2482 83.279C34.3769 88.8421 35.606 94.4721 37.596 99.7591C42.0608 111.613 44.5023 123.818 44.8451 136.417C45.1962 149.375 48.0223 161.773 52.2948 173.919C53.9587 178.646 56.7931 182.862 61.6425 184.694C70.4301 188.015 74.7695 194.582 78.0052 202.789C78.3313 203.675 79.0002 207.264 78.5905 207.415Z" fill="black"/>
</svg>
