<svg width="512" height="512" viewBox="0 0 512 512" fill="none" xmlns="http://www.w3.org/2000/svg">
<g clip-path="url(#clip0_966_4321)">
<path d="M0.699951 386.409C9.98995 456.409 69.61 510.349 141.8 510.349C213.99 510.349 273.6 456.349 282.89 386.409H0.699951Z" fill="#015C89"/>
<path d="M282.89 348.24C273.6 278.24 213.98 224.31 141.8 224.31C69.62 224.31 9.99995 278.28 0.699951 348.24H282.89Z" fill="#015C89"/>
<path d="M501 330.059L455 220.689C410.764 223.246 367.306 233.443 326.55 250.829C314.79 255.816 303.363 261.339 292.27 267.399C312.407 297.982 322.835 333.936 322.185 370.547C321.536 407.159 309.84 442.72 288.63 472.569C306.863 491.185 330.283 503.873 355.835 508.978C381.386 514.083 407.884 511.369 431.87 501.189C498 473.119 529 396.499 501 330.059Z" fill="#015C89"/>
<path d="M395.53 79.3196C367.59 12.8896 291.32 -18.2104 225.19 9.86961C159.06 37.9396 128.11 114.56 156.06 181L158.54 186.91C199.606 190.736 238.099 208.595 267.54 237.48C281.837 229.37 296.588 222.088 311.72 215.67C352.316 198.351 395.381 187.515 439.34 183.56L395.53 79.3196ZM353.72 119C351.42 119.967 348.952 120.472 346.457 120.485C343.961 120.498 341.488 120.02 339.178 119.078C336.867 118.135 334.765 116.747 332.992 114.992C331.218 113.237 329.807 111.15 328.84 108.85C325.151 99.9751 319.459 92.0742 312.209 85.7648C304.96 79.4553 296.349 74.9084 287.05 72.4796C282.212 71.163 278.09 67.9873 275.583 63.6445C273.077 59.3018 272.388 54.1442 273.668 49.2961C274.948 44.448 278.093 40.3024 282.416 37.763C286.74 35.2236 291.892 34.4963 296.75 35.7396C311.681 39.6354 325.508 46.9313 337.152 57.057C348.795 67.1828 357.94 79.864 363.87 94.1096C364.839 96.4103 365.345 98.8793 365.359 101.376C365.373 103.872 364.895 106.346 363.952 108.658C363.01 110.969 361.621 113.072 359.865 114.847C358.109 116.621 356.021 118.033 353.72 119Z" fill="#015C89"/>
</g>
<defs>
<clipPath id="clip0_966_4321">
<rect width="512" height="512" fill="white"/>
</clipPath>
</defs>
</svg>
