<svg width="512" height="512" viewBox="0 0 512 512" fill="none" xmlns="http://www.w3.org/2000/svg">
<g clip-path="url(#clip0_966_4327)">
<path d="M341.336 271V341.332H271.004V441.664H341.336V511.996H441.668V441.664H512V341.332H441.668V271H341.336Z" fill="#015C89"/>
<path d="M241.005 23.5355C241.005 10.5597 230.449 0.00488281 217.474 0.00488281C204.499 0.00488281 193.945 10.5607 193.945 23.5355V217.47C193.945 230.446 204.5 241.001 217.474 241.001C230.45 241.001 241.005 230.445 241.005 217.47V23.5355Z" fill="#015C89"/>
<path d="M23.5421 241.002C36.5168 241.002 47.0716 230.446 47.0716 217.471V23.5364C47.0716 10.5607 36.5158 0.00585938 23.5421 0.00585938C10.5663 0.00585938 0.0114747 10.5617 0.0114747 23.5364V217.471C0.0104747 230.446 10.5663 241.002 23.5421 241.002Z" fill="#015C89"/>
<path d="M77.0696 96.9717H163.945V144.034H77.0696V96.9717Z" fill="#015C89"/>
<path d="M512 193.939H468.562C439.513 193.939 415.072 214.004 408.345 241.001H512V193.939Z" fill="#015C89"/>
<path d="M314.443 163.94C338.332 163.94 360.124 173.089 376.504 188.065V62.0648C376.504 27.8444 348.663 0.00390625 314.443 0.00390625H271.005V163.939L314.443 163.94Z" fill="#015C89"/>
<path d="M512 163.94V0.00488281H468.562C434.341 0.00488281 406.501 27.8454 406.501 62.0658V188.066C422.88 173.09 444.671 163.941 468.562 163.941H512V163.94Z" fill="#015C89"/>
<path d="M314.443 193.939H271.005V241.001H374.66C367.933 214.005 343.491 193.939 314.443 193.939Z" fill="#015C89"/>
<path d="M206.687 469.254C216.55 456.096 248.07 408.077 239.579 342.616C234.109 300.449 201.643 271 160.629 271C149.202 271 137.894 273.998 127.925 279.669L120.508 283.889L113.091 279.669C103.122 273.998 91.8134 271 80.3866 271C39.3713 271 6.90689 300.449 1.43698 342.616C-7.05387 408.077 24.4646 456.095 34.3284 469.255C55.587 497.615 76.6527 511.996 96.9393 511.996C103.169 511.996 109.262 510.85 115.048 508.589L120.508 506.455L125.968 508.589C131.754 510.85 137.847 511.996 144.076 511.996C164.363 511.996 185.429 497.615 206.687 469.254Z" fill="#015C89"/>
</g>
<defs>
<clipPath id="clip0_966_4327">
<rect width="512" height="512" fill="white"/>
</clipPath>
</defs>
</svg>
