<svg width="512" height="512" viewBox="0 0 512 512" fill="none" xmlns="http://www.w3.org/2000/svg">
<g clip-path="url(#clip0_960_4317)">
<path d="M346.671 512H165.328C157.07 512 150.375 505.305 150.375 497.047V361.625H14.9531C6.6953 361.625 0 354.93 0 346.672V165.333C0 157.071 6.6953 150.376 14.9531 150.376H150.375V14.958C150.375 6.69628 157.07 0.000976562 165.328 0.000976562H346.671C354.929 0.000976562 361.624 6.69628 361.624 14.958V150.376H497.046C505.304 150.376 511.999 157.075 511.999 165.333V346.672C511.999 354.93 505.304 361.625 497.046 361.625H361.624V497.047C361.624 505.305 354.929 512 346.671 512Z" fill="#015C89"/>
</g>
<defs>
<clipPath id="clip0_960_4317">
<rect width="512" height="512" fill="white"/>
</clipPath>
</defs>
</svg>
